<svg xmlns="http://www.w3.org/2000/svg" xmlns:xlink="http://www.w3.org/1999/xlink" width="1951.076" height="933.435" viewBox="0 0 1951.076 933.435"><defs><style>.a{fill:#fff;}.b{fill:#6b47ed;}.c{clip-path:url(#a);}.d{fill:#5b36e2;}</style><clipPath id="a"><rect class="a" width="1951.076" height="933.421" transform="translate(0 0)"></rect></clipPath></defs><g transform="translate(0.566 -235.565)"><rect class="b" width="1920" height="933" transform="translate(-0.377 235.999)"></rect><g class="c" transform="translate(1950.51 1168.986) rotate(180)"><path class="d" d="M1.927,328.2c-.734.919.342,1.719.3,2.666s0,2.059,0,2.923a12.037,12.037,0,0,1,1.51,3.576l1.621,1.48a7.19,7.19,0,0,0,.2,2.611,18.588,18.588,0,0,0,1.63,2.758l1.742,5.608c-.1.1-.182.175-.3.276a3.283,3.283,0,0,0,.322,2.206c-1.007,1.2.171,2.271.342,3.365a4.062,4.062,0,0,1,0,2.519,2.1,2.1,0,0,0-.131,1.949c.484.837.423,1.839,1.219,2.5-1.117,1.177-.876,2.482-.846,3.742.524.4.584,1.03.846,1.434a5.283,5.283,0,0,0-.232,4.036c.2.8.613,1.554.805,2.4a13,13,0,0,1,.393,2.547,1.576,1.576,0,0,0,.161.984,5.961,5.961,0,0,1,.746,3.677,1.571,1.571,0,0,0,.09.432L13.624,383c-.825.607-.333,1.407-.474,2.087.563.441.635,1.057.926,1.535-.815,1.057-.543,2.114-.11,3.31a2.488,2.488,0,0,0-2.08,1.3,2.1,2.1,0,0,0,.238,2.289c-.7.653-.221,1.443-.312,2.17s.171,1.5-.5,2.032c.947,1.673-.131,3.116-.614,4.5a8.214,8.214,0,0,1-2.546,4.063,10.882,10.882,0,0,1-.735,3.631,4.91,4.91,0,0,0,.091,2.942C8,414.2,8.611,415.5,9.215,417.041c-.845.322-1.007,1.158-1.36,1.618.131,1.719,2.175,2.611,1.722,4.091,1.57,2.307,3.855,3.144,6.161,3.778,1.157,1.839.3,3.815.694,5.645,1.681,1.535,3.332,3.061,5.032,4.6a6.213,6.213,0,0,1,1.319,1.995c.766,1.581,1.077,3.328,2.2,4.79A20.943,20.943,0,0,0,27.1,445.66c1.007.919,1.49,1.9.585,3.08,1.5,1.168,2.537,2.611,4.147,3.429a3.456,3.456,0,0,0,.06.827c.755.5,1.208,1.2,2.1,1.544.6.221.876.919,1.128,1.618a9.909,9.909,0,0,0,2.376,4.109,3.243,3.243,0,0,1,1.188,2.648.88.88,0,0,0,.312.717,2.852,2.852,0,0,1,.514,3.061c-.725,1.407.1,2.583.07,3.852,0,.441.544.588.493,1.076-.2,1.967.855,3.87.442,5.516.453,1.526,1.682,2.307,1.842,3.631,0,.248.534.671.755.644,1.007-.11,1.369.515,1.833,1.011.291.3.7.165,1.066.506-.262.423.1.919-.242,1.489-.251.423-.815.791-.714,1.4,1.248,1.4,2.294,0,3.413-.073l2.073,1.747c-.181.827.665,1.379.493,2.124l1.953,1.783a5.043,5.043,0,0,1,3.2,1.572c.573.313,1.148-.1,1.58.294.05.211.09.4.141.625a2.313,2.313,0,0,1,1.54-.349c.383.34.764.919,1.55.919,0,1.361-.192,2.758.916,4.275l2.728,2.482v1.324c2.486,1.563,3.935,3.677,3.634,6.527,1.218,1.388.9,3.2,1.923,4.551a1.091,1.091,0,0,0-.5,1.508c.664,1.039.281,2.124.432,3.144a1.949,1.949,0,0,1,.433.5A13.537,13.537,0,0,0,74.01,523.9c.322.3.141.643.232,1.039l1.349,1.094c0,.772.141,1.388-.4,1.839l.805.745a2.661,2.661,0,0,1-.5,2.427c.553.588,1.339.919.916,1.839l-1.721,1.572c0,2.335.2,2.831,2.265,5.01V541.9c0,1.664-.271,3.383,1.278,4.817,1.006-.368,1.339.919,2.305,1,.684,1.885.886,1.912-.132,3.926a1.6,1.6,0,0,0-.25.919,3.022,3.022,0,0,1-.454,1.7c-.322.708.525,1.223.444,1.9,0,.211.09.469,0,.616-1.169,1.618.211,3.006.382,4.643-.583,1.783-2.014,3.622-.826,5.8a2.037,2.037,0,0,0-.493,1.076c-.271,1.526.625,2.914.514,4.413a27.255,27.255,0,0,0,0,3.742c.081,1.287-.926,2.455-.363,3.742a3.709,3.709,0,0,0,1.38,1.765,3.743,3.743,0,0,1,1.208,1.627,16.794,16.794,0,0,0,1.479,2.151c.664.965,1.883,1.756,1.731,3.071a3.906,3.906,0,0,0,.514,2.307,1.661,1.661,0,0,1-.141,2.28l.544.542c-.182.2-.5.331-.443.671.563.745.462,1.94,1.509,2.317,1.44.506,1.611,1.489,1.712,2.675a4.34,4.34,0,0,0,.815,2.179c.463.653,1.248.607,2.014.846-.585.791.482,1.214.332,1.949-.242,1.223.5,2.28.9,3.393-.734.68-.312,1.544-.472,2.326s-1.088,1.407-.866,2.473a2.612,2.612,0,0,1,1.932,1.6c.413.754,1.571.919,2.195,1.627a6.093,6.093,0,0,1,1.731,2.3c-.6,1.094,1.2,2.427,0,3.732,0,.386.372.588.513.919.482,1.029.2,2.215.855,3.208a13.318,13.318,0,0,1,1.349,2.4,1.954,1.954,0,0,0,.937.993,11.373,11.373,0,0,1,3.653,3.475A4,4,0,0,0,106.745,635h2.466c1.006,1.287,1.278,2.933,2.325,4.174-.251,1.029,1.006.919,1.38,1.471-.484,1.839-.484,1.839.473,3.549-.051.257-.443.368-.182.919.493,1-.12,2.262.594,3.319a.4.4,0,0,1,0,.4c-.724.616-.353,1.416-.463,2.206a2.606,2.606,0,0,0-.6.524,49.164,49.164,0,0,0-3.019,4.486,3.2,3.2,0,0,1-1.682,1.49,9.889,9.889,0,0,0-1.519,3.916c-.423,1.967-1.652,5.746-3.654,6.968v.919c-1.279.589-1.52,1.94-2.346,3.016v2.519c-1.7.644-2.013,2.574-3.663,3.356s-2.1,2.6-3.544,3.466c-.121.4.132.772-.222,1.057s-.9.736-.734,1.388c.1.359-.191.6-.362.919a12.807,12.807,0,0,1-2.366,2.537v.515a3.816,3.816,0,0,1-.2,4.146,5.009,5.009,0,0,0-.715,2.85,3.452,3.452,0,0,0-2.275,2.28,16.2,16.2,0,0,1,0,2.859c-.181,1.076.715,1.94.483,2.951s1.007,1.839.161,3.034a13.889,13.889,0,0,0-4.025,2.354,4.43,4.43,0,0,1-2.7,1.333l-3.957,3.6c0,.248.171.625-.2.919-1.781,1.25-3.5,2.6-5.385,3.677a17.851,17.851,0,0,0-2.425,1.747c-.444,1.4-1.4,2.418-1.621,3.613a4.285,4.285,0,0,0-2.165,1.094c0,.469-.059.919-.08,1.342-2.455,1.977-4.076,4.6-6.543,5.9-.765,1.581-.947,2.841-.272,4.137a1.369,1.369,0,0,1,0,1.021c-.261.735-.624,1.434-.946,2.142a48.464,48.464,0,0,1,1.007,5.111c.584.451.554,1.269.9,1.618.865.441,1.57.552,1.952,1.333a1.568,1.568,0,0,0,1.813.919c.312.68,1.157.175,1.55.57a9.681,9.681,0,0,1,1.007,1.305L61.841,754.3c-.262.6.332.919.443,1.342s-.513.8-.464,1.416c.513.266.533.919.806,1.278.312.919-.332,1.839.544,2.445-1.179,1.186-1.188,2.9-2.185,4.137-1.007.515-2.2.8-2.738,1.839-.624,1.177.806,2.17.231,3.4H54.784L52.7,772.066v1.783c-2.012,1.149-2.788,3.015-3.462,4.937-1.158.239-2.3.322-2.919,1.259-.121.873.543,1.462,1.006,2.261-.332,1.149.322,2.446-.463,3.677a1.978,1.978,0,0,0,0,1.839c1.007,1.471,0,2.316-.875,3.319s-2.2,1.287-3.262,2.078v1.361c-.6,1.682-1.923,2.344-2.778,3.374.463,1.3-1.007,1.839-1.329,2.813v2.022c-1.943,1.839-1.751,4.256-2.466,6.518a9.676,9.676,0,0,0-3.916,2.8c0,1.719.252,3.558-.564,5.4l-1.641,1.5c-.12,1.305-1.167,2.243-1.278,3.484a6.9,6.9,0,0,1,.724,1.324c.162.5,0,1,.424,1.526s-.062,1.122.462,1.7c.241.267,0,.919-.232,1.517-.473.919-1.369,1.407-2.013,2.2a6.61,6.61,0,0,0,.362,1.682c.483,1.3-.242,2.629-.956,3.733s-1.118,2.243-.141,3.438c1.006.11,1.329,1,2.013,1.416.191.4-.111.846.332,1.186a3.178,3.178,0,0,1,1.077,3.162l2.778,2.436v2.969c1.068.487,1.008,1.673,1.782,2.409.282,1.554-.937,3.006-.222,4.891l.685.46c.07,1.894-.23,3.677.493,5.369a7.644,7.644,0,0,1,.463,1.287,11.967,11.967,0,0,0,2.788,5.617,5.244,5.244,0,0,1,1.672,3.282,4.588,4.588,0,0,0,1.177,2.887,4.159,4.159,0,0,1,1.158,3.227c1.651,1.9,1.158,4.229,1.823,6.27,0,.129.06.349,0,.4-.766.524-.333,1.278-.423,1.921,0,.1.11.221.181.34H45.6c.947,1.471.4,3.162.806,4.679s.221,3.208.533,4.78c.633,1.112,1.791,2.105.865,3.567a1.575,1.575,0,0,0-.11.791,8,8,0,0,0,.945,3.806,5.206,5.206,0,0,1,.817,2.161c-.183,2.675.452,5.286.562,7.943a18.732,18.732,0,0,1-.532,2.942,12.951,12.951,0,0,0,.584,4.8,50.154,50.154,0,0,1,1.006,5.231,1.805,1.805,0,0,1,0,1.443c-.443.791-.443,1.747-1.006,2.537-.141.2-.192.653,0,.781.6.579.4,1.269.422,1.931a6.858,6.858,0,0,0,1.289,3.457,9.944,9.944,0,0,1,1.359,2.216c.241.368.312.966.543,1.443s-.624.919-.422,1.48l1.772,1.618a4.017,4.017,0,0,0,.7,2.225c.473.827,0,1.627.3,2.427.674.4.825,1.315,1.73,1.572v.726c.474.919,1.551,1.094,2.3,1.783v4.863c1.006,1.443,1.188,3,2.154,4.21.151.193.091.515.131.781a6.356,6.356,0,0,1-1.007,4.211,3.5,3.5,0,0,0-.413,1.839c-1.006.349-1.308,1.443-2.013,2.2s-.573,1.921-1.2,2.648c-.765.919,0,2.023-.836,2.831a.9.9,0,0,0,0,.92c.564.478.393,1.03.362,1.544a45.374,45.374,0,0,0-.484,6.068,2.135,2.135,0,0,1-.583,1.618c-1.308,1.121-1.238,2.51-1.2,3.935v2.216L53.607,996.6c0,.4.191.919,0,1.2a2.174,2.174,0,0,0-.433.8H1148.825V0H87.277c-.11.23.452,1.839.382,2.114,1.107,1.453.362.46,1.892,1.783.121,1.122.876,2.059.3,3.411A10.432,10.432,0,0,1,86,12.163a3.579,3.579,0,0,0-1.288,1.692c-.554,1.5-.252,2.583.333,4.7.382,1.379,1.619,2.62.815,4.339-.483.294-.856,1.02-1.671,1.315a3.087,3.087,0,0,0-1.731,1.526c-.3.7-1.169.616-1.47,1.287s-1.117.984-1.258,1.554c-.2.855-1.127,1.066-1.49,1.9.714,1.627-1.409,2.694-1.319,4.5-1.137,1.03-2.365,2.151-3.594,3.282,0,1.232-.845,2.4-.553,3.346-.735,1.453-1.872,2.455-1.007,3.907a1.637,1.637,0,0,1,.07,1.59c-.584.919-.292,1.839-.4,2.666a2.52,2.52,0,0,1,.887,1.627c.09,1.4,1.005,2.611.936,4.027.6.23.131,1.085,1.086,1.3s1.007,1.508,1.611,2.234c.393.46-.312.974-.392,1.471-.192,1.213-1.46,2.216-.807,3.622.463.414.917.974,1.44,1.076.8.745.442,1.931,1.389,2.289A1.6,1.6,0,0,1,78.7,69.06c.1,2.023-.2,4.073.654,6.113l-1.61,1.2c.362.726-.332,1.076-.392,1.6,1.005,1.048.09,1.839-.473,2.758.513,1.434-.685,2.877-.423,4.367a4.572,4.572,0,0,1,.665,4.44,11.77,11.77,0,0,0-.745,3.172c-1.006.846-1.741,1.839-3.211,2.262.625.781-.523,1.149-.353,1.839a4.253,4.253,0,0,1,.444,2.124c-.171.7.433,1.315.393,1.9a2.275,2.275,0,0,0,1.006,1.793c.091.993-.925,1.728-.251,2.684,1.188,0,1.852.919,2.637,1.563a3.46,3.46,0,0,1,1.3,2.225c.1.708.784.919,1.279,1.048l1.711.864a13.969,13.969,0,0,0-1.5,2.758,14.222,14.222,0,0,0-.211,2.988c-.484.552-.584,1.305-1.228,1.581-.483,1.784.544,3.126,1.307,4.5-.079.368-.6.5-.472.919l.785,1.269c-.675,1.112-.151,2.3-.382,3.484,1.691.791,1.66,2.813,3.342,3.677-.413.919.231,1.563.573,2.271.221,0,.473-.083.7.285v2.105c1.007-.064.856.818,1.348,1.149v2.335l1.379.919a7.7,7.7,0,0,0,.855,3.144c.352,1-.342,2.179.453,3.172-.744.974-2.385,1.241-2.7,2.832.9.4.674,1.37.4,1.9-.634,1.214-.211,2.409-.413,3.549l.866.791a2.642,2.642,0,0,0-.352,2.142c.333.423.926.6.846,1.039s.453.827.494,1.361c-.131.165-.433.368-.444.588-.12,1.839.656,3.576.534,5.415,0,.092.242.175.3.294a20.771,20.771,0,0,1,1.289,2.381c0,1.719-1.007,2.758-1.3,3.788a7.134,7.134,0,0,1-2.647,2.105c.423.4.382.984.876,1.333a1.257,1.257,0,0,1,.568.867,1.191,1.191,0,0,1-.306.971,2.462,2.462,0,0,0-.191,3.208c-1.208,2.2-1.41,2.859-1.44,4.192a5.745,5.745,0,0,1-2.1,2.7c-1.55,1.416-2.355,3.319-3.8,4.808.06,1.057-.907,1.747-1.159,2.675s-.423,1.949-.744,2.85c-.433,1.241-.916,2.684-2.678,3.107.182,1.2-.282,2.436.463,3.595a1.1,1.1,0,0,1,0,1,12.936,12.936,0,0,0-.9,3c-.463,1.5-.594,3.172-2.275,4.054v3.769a4.013,4.013,0,0,0-1.5,2.831L68.262,222.1v2.1a1.837,1.837,0,0,0-1.56,1.039c-.292.8-1.228,1.149-1.359,1.995s-1.127.919-1.46,1.7-1.218.579-1.831.919a4.891,4.891,0,0,1-1.883,2.179,3.983,3.983,0,0,0-1.52,1.48,1.384,1.384,0,0,1-.674.763c-1.792.735-2.748,2.3-4.107,3.438a1.468,1.468,0,0,0-.644,1.388c.171.533-.624.616-.473,1.085A11.237,11.237,0,0,1,54.16,243c-.2.662-1.007.919-1.188,1.646s-1.379.754-1.842,1.351-1.379.2-2.014.542a20.232,20.232,0,0,1-4.137,1.912c-.6.147-1.228.7-1.238,1.076-.06,1.728-1.712,1.774-2.7,2.39-1.077,2.832-3.765,3.953-6.413,5.277.121,1.572-1.006,2.436-2.375,3.071.392,2.988-1.489,4.863-3.5,6.582-.262,1.1-.806,2.1-.564,3.2.07.34-.322.432-.453.662a12.674,12.674,0,0,1-3.02,4.045,17.227,17.227,0,0,0-1.459,1.315,7.483,7.483,0,0,1-.092.919c-.553.506-1.006.919-1.529,1.37a.345.345,0,0,1-.253.073,8.568,8.568,0,0,0-1.56,3.172,2.048,2.048,0,0,0,.232,2.216,2.438,2.438,0,0,1,.383,1.894c-.242.313-.695.46-.776.919.272.175.5.432.353.7-.574,1.048-.362,2.3-1.2,3.31a1.91,1.91,0,0,0-.624,1.416c.192,1.287-.684,2.225-1.358,3.227a19.916,19.916,0,0,0-1.571,2.317,7.864,7.864,0,0,1-2.3,2.868c-.332.1-.714-.129-1.006.156a18.455,18.455,0,0,0-2.869,2.206,7.372,7.372,0,0,1-2.678,1.6v2.335a9.6,9.6,0,0,1-2.586,2.951c-.272.46-.071.781-.292,1.14-.847,1.333-1.59,2.758-2.335,4.1a4.319,4.319,0,0,0-.645,2.841c.232.3.685.451.755.809-.835,1.1-.865,2.381-1.268,3.549-.191.542.473.809.463,1.278-.816.975-.312,2.078-.484,3.126l2.014,1.71" transform="translate(1172.242 965.724) rotate(-180)"></path></g></g></svg>