<svg xmlns="http://www.w3.org/2000/svg" xmlns:xlink="http://www.w3.org/1999/xlink" width="120.426" height="43.009" viewBox="0 0 120.426 43.009"><defs><style>.a{fill:#fff;}.b{clip-path:url(#a);}</style><clipPath id="a"><rect class="a" width="120.426" height="43.009" transform="translate(0 0)"></rect></clipPath></defs><g class="b" transform="translate(0 0)"><path class="a" d="M18.176,22.027c0,1.659-.7,2.864-1.653,2.864a1.287,1.287,0,0,1-.86-.43A2.947,2.947,0,0,1,14.87,22.4v-.135l-.021-.168a6.716,6.716,0,0,1,1.789-4.782,7.97,7.97,0,0,1,1.532-1.3ZM28.806,7.958a37.454,37.454,0,0,0-5.008.333V0H18.176a6.282,6.282,0,0,1-1.888,4.356,6.284,6.284,0,0,1-4.4,1.793A6.285,6.285,0,0,1,7.5,4.356,6.285,6.285,0,0,1,5.61,0H0A11.856,11.856,0,0,0,1.19,5.223,11.859,11.859,0,0,0,4.557,9.389,11.859,11.859,0,0,0,14.77,11.541a13.762,13.762,0,0,0-2.393,2.118,12.269,12.269,0,0,0-3.114,8.869,8.543,8.543,0,0,0,2.431,5.893A6.829,6.829,0,0,0,16.538,30.5c4.146,0,7.275-3.648,7.275-8.485V13.983a30.047,30.047,0,0,1,5.027-.4Z" transform="translate(91.379 2.784)"></path><path class="a" d="M12.6,23.008A7.793,7.793,0,0,1,7.272,9.534a11.574,11.574,0,0,0,5.3,1.5c1.833.035,6.2-.177,7.177-3.029a3.241,3.241,0,0,0-.474-2.946c-1.12-1.579-3.536-2.5-6.674-2.525A12.643,12.643,0,0,0,7.4,3.648,21.929,21.929,0,0,1,4.143,0L.153,2.834A27.422,27.422,0,0,0,3.33,6.567,12.669,12.669,0,1,0,23.848,21.09l-4.337-2.269A7.779,7.779,0,0,1,12.6,23.008Z" transform="translate(68.959 -0.321)"></path><path class="a" d="M0,5.893A5.893,5.893,0,0,0,2.7,10.84,5.893,5.893,0,0,0,0,15.79v8.462H1.895V15.79a4,4,0,0,1,4-4H8.211V9.894H5.893a4,4,0,0,1,0-7.991H8.954V0H5.893A5.893,5.893,0,0,0,0,5.893Z" transform="translate(-0.05 2.784)"></path><path class="a" d="M0,16.744a7.522,7.522,0,0,0,7.419,7.5H9.187l.035-3.586H7.454A3.91,3.91,0,0,1,7.5,12.837H9.213V9.252H6.42a2.834,2.834,0,1,1,0-5.666H9.284V0H6.423A6.414,6.414,0,0,0,2.316,11.346,7.455,7.455,0,0,0,0,16.744" transform="translate(39.869 2.784)"></path><path class="a" d="M9.378,21.753H2.5V0H0V24.251H9.378Z" transform="translate(11.908 2.784)"></path><path class="a" d="M6.246,24.811a6.285,6.285,0,0,0,6.22-6.32V0H9.343V18.491a3.111,3.111,0,1,1-6.22,0V0H0V18.491a6.285,6.285,0,0,0,6.246,6.32Z" transform="translate(24.346 2.784)"></path><path class="a" d="M6.856,0A6.865,6.865,0,0,0,0,6.868V24.8H4.364V6.868a2.487,2.487,0,1,1,4.97,0V24.8h4.372V6.868A6.864,6.864,0,0,0,6.856,0Z" transform="translate(52.156 2.241)"></path><path class="a" d="M3.91,2.793H1.948l1-1.886ZM2.7,0,0,5.153H.707L1.62,3.415H4.237l.91,1.738h.707L3.161,0Z" transform="translate(-0.05 37.159)"></path><path class="a" d="M3.9,2.787H1.945L2.926.907ZM2.687,0,0,5.141H.707l.907-1.732h2.61l.907,1.732H5.84L3.153,0Z" transform="translate(37.333 37.173)"></path><path class="a" d="M4.178,2.575c0,1.385-.513,1.948-1.768,1.948H.642V.622H2.41c1.252,0,1.768.566,1.768,1.95ZM2.41,0H0V5.141H2.41c1.615,0,2.4-.84,2.4-2.569S4.025,0,2.41,0Z" transform="translate(56.196 37.173)"></path><path class="a" d="M5.339,0,3.211,4.2,1.143,0H.592L0,5.141H.63l.451-3.848,1.9,3.848h.442l1.965-3.88.456,3.88h.634L5.884,0Z" transform="translate(91.376 37.173)"></path><path class="a" d="M3.595,0,2.3,2.463.734,0H0L1.971,3.094.893,5.141h.7L4.287,0Z" transform="translate(110.877 37.164)"></path><path class="a" d="M1.42,2.855l2.891-.029V2.236l-2.885.029a.84.84,0,1,1,0-1.676H4.313V0H1.429A1.426,1.426,0,0,0,.565,2.563a1.426,1.426,0,0,0,.863,2.563l2.888-.015V4.523l-2.885.015a.84.84,0,0,1,0-1.679" transform="translate(74.042 37.188)"></path><path class="a" d="M4.817,3.553c-.18.784-.8,1.134-2.03,1.134-1.582,0-2.142-.533-2.142-2.03S1.205.628,2.787.628C4,.628,4.623.975,4.8,1.759l.018.071h.636l-.018-.106C5.23.566,4.364,0,2.784,0,.86,0,0,.819,0,2.652S.86,5.3,2.784,5.3a2.942,2.942,0,0,0,2.172-.675,1.889,1.889,0,0,0,.51-1.049l.018-.106H4.832Z" transform="translate(18.824 37.08)"></path></g></svg>