<svg xmlns="http://www.w3.org/2000/svg" xmlns:xlink="http://www.w3.org/1999/xlink" width="1922.099" height="569.155" viewBox="0 0 1922.099 569.155"><defs><style>.a{fill:#ff6340;}.b{fill:none;}.c{fill:#ff387d;}.d{clip-path:url(#a);}.e{fill:#ffc946;}.f{fill:#f7bd31;}.g{opacity:0.1;}.h{clip-path:url(#b);}.i{fill:#fff;}.j{clip-path:url(#d);}.k{clip-path:url(#f);}.l{clip-path:url(#h);}</style><clipPath id="a"><path class="a" d="M620.068,569.139c-2.249-.188-4.706-.2-6.831-.6a8.852,8.852,0,0,0-1.556.358,30.4,30.4,0,0,1-5.47-.3c-2.585-.355-5.324-.709-7.892-1.107-.689-.107-1.309-.012-2.192-.141a33.22,33.22,0,0,0-5.682-1.23h-4.494a9.568,9.568,0,0,0-3.079-1.272,38.172,38.172,0,0,1-4.247-1.366c-.548-.137-.105-.32-.3-.479a30.457,30.457,0,0,0-5.523-1.1c-1.545-.224-3.037-.47-4.458-.747a27.66,27.66,0,0,0-6.209-.645,11.185,11.185,0,0,1-2.726-.3c-1.948-.4-4.353-.3-6.372-.573a2.81,2.81,0,0,0-1.343.17,8.215,8.215,0,0,1-1.771-.369,17.064,17.064,0,0,0-3.643.182,14.477,14.477,0,0,1-4.268.109,48.739,48.739,0,0,1-6.1-.74c.018-.046-.035-.089-.142-.122-.866-.247-1.665-.461-2.637-.723-.5-.016-1.132-.046-1.769-.046-.852-.217-1.754-.446-2.531-.694a52.326,52.326,0,0,0-7.786-1.436,4.269,4.269,0,0,0-1.276-.219,52.975,52.975,0,0,1-6.155-.264,37.017,37.017,0,0,0-12.669-1.669,11.437,11.437,0,0,0-5.911-1.131,23.748,23.748,0,0,0-10.158-3.049c-1.185-.469-1.272-1.252-4.6-1.28a3.961,3.961,0,0,1-2.068-.587,16.99,16.99,0,0,0-3.681-1.971c-.654-.3.105-.734-1.047-.956s-1.2-.79-2.6-.875-1.9-.469-3.168-.564c-2.072.084-3.646.46-5.413.667a2.629,2.629,0,0,1-.994-.113,2.79,2.79,0,0,0-1.1-.111,8,8,0,0,1-2.673-.306c-2.192-.647-5.2-1.1-6.615-1.955a4.821,4.821,0,0,0-1.472-.32,11.248,11.248,0,0,1-2.85-.72,17.074,17.074,0,0,0-4.193-.9c-.654-.294-.265-.714-1.768-.872s-1.647-.631-3.274-.694-2.3-.5-3.84-.646c-1.131-.125-1.9-.413-2-.742h-4.038l-2.669-.812a21.2,21.2,0,0,1-5.452-.716h-7.256c-1.7-.8-4.918-.859-7.8-1.082-1.977-.08-3.911-.226-5.768-.425a8.073,8.073,0,0,0-1.93,0,27.7,27.7,0,0,1-4.494.2c-.81-.007-1.623-.013-2.426.016-.813-.838-3.589-1.067-5.979-1.273-1.732-.151-3.7-.233-5.487-.351a51.2,51.2,0,0,0-5.148-.555c-2.867-.687-6.53-1.069-9.253-1.809a22.643,22.643,0,0,0-5.2-1,51.415,51.415,0,0,1-8.069-.683,16.94,16.94,0,0,1-6.177-.092,7.689,7.689,0,0,0-1.866-.145,5.636,5.636,0,0,0-1.669.269c-.676.237-1.789.215-2.567.417a15.047,15.047,0,0,0-4.052-1.259,69.773,69.773,0,0,0-7.291-.619c-1.573.182-3.1.385-4.582.612-.229.03-.389.144-.565.144-1.771-.029-3.493.049-5.212.127s-3.443.154-5.212.129a5.8,5.8,0,0,1-1.131-.21c-1.029.019-1.771.273-2.62.235a7.052,7.052,0,0,0-2,.4,18.955,18.955,0,0,1-4.123-.166l-1.521.409c-.81-.037-1.63-.028-2.461-.025a32.68,32.68,0,0,1-4.37-.17,8.01,8.01,0,0,0-3.662.191c-3.062-.147-3.575-.927-5.449-1.279a17.782,17.782,0,0,1-3.6.175,23.6,23.6,0,0,0-2.507.038,53.15,53.15,0,0,1-6.049.406l-1.771.656H265.6c-.637.233-2.337.163-2.213.643h-4.053c-.707.106-.548.229-.548.336a16.739,16.739,0,0,1-4.37.27c-1.662.8-5.555.786-7.078,1.591-.888-.044-1.771-.033-2.648-.021a26.6,26.6,0,0,1-4.059-.159l-2.44.374a9.661,9.661,0,0,1-1.771-.227,38.52,38.52,0,0,1-8.651.62,18.026,18.026,0,0,0-3.044-.584c-1.924.02-3.851-.014-5.749-.1-1.86-.186-3.639-.424-5.312-.712l-1.661.811c-.248.237-.654.561-2.02.611a17.218,17.218,0,0,0-4.281.615c-1.237.373-3.009.69-3.009,1.255a10.814,10.814,0,0,1-3.072-.007,16.477,16.477,0,0,0-2.094-.112,11.4,11.4,0,0,1-3.45.478,13.243,13.243,0,0,0-1.585.1,12.93,12.93,0,0,1-2.078.089,30.584,30.584,0,0,0-4.088.21,6.1,6.1,0,0,1-1.471-.125,5.038,5.038,0,0,0-2.068-.045c-.813-.7-2.726-1.048-4.353-1.523-2.082-.05-4.133-.167-6.106-.355a32.339,32.339,0,0,0-8.546.314,35.172,35.172,0,0,1-3.914-.123,28.187,28.187,0,0,0-4.49-.076c-1.768-.271-3.291-.705-5.307-.227a14.153,14.153,0,0,0-3.08-.187l-2.3-.766a84.339,84.339,0,0,1-8.736.295c-1.015,0-2.026,0-3.03.016a6.459,6.459,0,0,0-3.186.531c-.689.45-2.97.284-4.405.661a7.249,7.249,0,0,1-2.068.687c-2.709.31-4.639-.295-6.973-.384a12.275,12.275,0,0,0-2.832-.188c-1.4.287-3.893.314-4.3.767s-2.054.23-2.5.519c-2.723-.034-5.06.4-7.75.441a13.564,13.564,0,0,0-3.129.421c-.506-.018-1.025-.014-1.556-.011A22.85,22.85,0,0,1,90.652,535a11.76,11.76,0,0,0-3.062.032c-2.8.41-4.724-.13-7.521-.479-1.82.14-4.069-.263-6.438-.263-2.178-.586-4.335-1.169-6.318-1.708a22.921,22.921,0,0,1-3.949-.352,16.911,16.911,0,0,0-4.7-.276c-1.612-.175-2.02-.612-3.663-.71-1.1-.065-1.7-.452-2.991-.6s-1.132-.558-2.479-.7a7.385,7.385,0,0,1-2.935-.826,15.48,15.48,0,0,0-2.532-.795c-3.31-.384-5.7.207-8.351.388a51.926,51.926,0,0,1-9.045.158,14.411,14.411,0,0,1-3.256-.612,40.115,40.115,0,0,0-9.342-1.835,42.524,42.524,0,0,0-6.565.144,16.311,16.311,0,0,1-3.43.9c-.259-.018-1.114.037-1.977.094-.93.059-1.871.113-2.1.089V25.288a11.346,11.346,0,0,1,1.541.2,19.457,19.457,0,0,0,2.319,0l2.387.653h4.265a28.014,28.014,0,0,1,7.573.568,13.343,13.343,0,0,0,3.115.277c3.906.012,7.807.089,11.678.229a10.5,10.5,0,0,0,2.974-.169,6.386,6.386,0,0,1,1.769,0c1.559.394,3.681.033,5.452.394,1.4.3,3.645.237,5.095.573s3.557.476,4.229.955a24.833,24.833,0,0,1,3.539.2,44.484,44.484,0,0,0,8.1.479,13.342,13.342,0,0,0,1.506-.062c2.333-.463,5.324-.548,8.1-1.028h9.359c1.329-.351,1.665-.863,3.433-1.088h1.4c.494-.432,2.266-.5,3.026-.822A19.524,19.524,0,0,1,92.95,26.6a16.581,16.581,0,0,0,2.585-.1,27.064,27.064,0,0,1,4.285-.332l3.111-.843a5.638,5.638,0,0,1,1.471.1,5.175,5.175,0,0,0,1.379.1c.919-.111,2.072-.146,2.779-.26,1.517-.166,2.948-.384,4.264-.646a42.8,42.8,0,0,1,6.654-.612c.275,0,.556,0,.835,0a11.477,11.477,0,0,0,2.881-.2,4.766,4.766,0,0,1,1.5,0c1.524.27,3.362.27,4.887.48a14.02,14.02,0,0,0,2.775,0c3.38-.137,6.707-.256,10.069-.48,3-.235,6.12-.329,9.235-.276,1.863.121,3.755.207,5.664.255,5.113-.056,10.137-.354,15.289-.271a32.49,32.49,0,0,0,4.157-.388,56.862,56.862,0,0,1,7.326-.45,11.987,11.987,0,0,1,1.521.053c2.814.443,4.724-.11,6.866-.41,3.026-.148,6.279-.062,9.2-.255s6.177.066,9.009-.384v-.211a5.114,5.114,0,0,1,.654-.084c.378.01.778,0,1.178-.008a7.409,7.409,0,0,1,2.521.207,6.77,6.77,0,0,0,.778,0c3.928-.314,8.4-.081,12.067-.864a26.046,26.046,0,0,0,6.212-.555,28.035,28.035,0,0,1,5.555-.557,28.544,28.544,0,0,0,6.318-.8,67.551,67.551,0,0,1,10.813-1.325c.845-.056,1.676-.129,2.479-.219a68.042,68.042,0,0,1,7.474-.234c.938,0,1.889.007,2.857,0l.884-.326a34.8,34.8,0,0,1,5.509.008,37.344,37.344,0,0,0,3.907.095c1.414-.368,3.7-.339,4.635-.844h5.718l4.688-1.322a19.613,19.613,0,0,0,6.085-.513,4.446,4.446,0,0,1,1.34-.125,8.428,8.428,0,0,0,.943-.029c.8-.329,2.515-.481,2.727-.961a18.213,18.213,0,0,1,6.615.067,29.328,29.328,0,0,0,7.185.457c1.05-.1,2.139-.151,3.238-.174,1.521.307,2.461.73,4.229.956a13.814,13.814,0,0,0,2.92.112,7.8,7.8,0,0,1,1.758-.131,7.789,7.789,0,0,0,1.517-.093,23.828,23.828,0,0,1,2.938-.2c.891-.093,1.742-.207,2.545-.347,2.391.056,4.193.554,6.708.609l2.885.782a94.3,94.3,0,0,0,10.385.265,17.109,17.109,0,0,1,5.4,1.865c4.353.34,9.006.246,12.545,1.169H380.8c1.878.155,2.921.854,5.417.632a38.94,38.94,0,0,0,6.491,1.322h2.62c1.524.509,2.072,1.137,4,1.55a14.356,14.356,0,0,0,6.389.417,14.6,14.6,0,0,1,3.54,0,24.818,24.818,0,0,0,4.264.182c.965-.012,1.913-.027,2.811.041a22.035,22.035,0,0,1,4.356-.481,2.9,2.9,0,0,1,2.422,1.388c3.7.322,7.291.69,9.5,1.651h3.434l3.681.988v1.757A15.193,15.193,0,0,0,443,27.747a14.139,14.139,0,0,1,3.271-.048,8.3,8.3,0,0,1,3.54,1.3c2.39.472,5.682.476,7.966,1.037a8.153,8.153,0,0,1,2.69-.226c.646.012,1.329.022,2.016-.032a14.8,14.8,0,0,0,2.457-.385,8.575,8.575,0,0,1,1.446.111,5.806,5.806,0,0,0,1.279.109,11.012,11.012,0,0,1,2.585-.209l8.316,1.494c.884-.144,1.725-.3,2.51-.479.764-.189-.208-.592,1.1-.738-.321-.367.445-.738,1.769-.861a5.59,5.59,0,0,0,2.566-.929c.672-.164,2.249-.148,3.115-.426,3.38-.066,6.544-.324,9.836-.479,1.365.155,2.709.324,4.123.449a10.017,10.017,0,0,0,1.966,0,31.285,31.285,0,0,1,7.962.13c2.515,1.174,7.557,1.941,11.36,3.112.813.007,1.684.036,2.585.036a4.064,4.064,0,0,1,2.1,1.03c2.3.107,4.265.561,6.955.771a33.055,33.055,0,0,1,3.362,1.153c2.072.9,4.671,1.716,7.078,2.563a6.179,6.179,0,0,0,1.769.095l6.937,1.882c.244.5,1.156.953,2.567,1.282a17.578,17.578,0,0,1,4.529,1.915,12.223,12.223,0,0,0,3.528.021,14.482,14.482,0,0,1,2.309-.1,19.006,19.006,0,0,0,2.85-.114,21.014,21.014,0,0,1,2.832-.114c1.832.04,3.671.04,5.506,0a9.538,9.538,0,0,1,4.384,1.081,35.233,35.233,0,0,1,5.487.339,27.337,27.337,0,0,0,7.98.1h.99a41.808,41.808,0,0,0,4.886,1.126,7.6,7.6,0,0,0,1.769.17,7.135,7.135,0,0,1,2.673.351,4.034,4.034,0,0,0,1.185.089c.269,0,.551-.008.849.014,1.665.688,5.169.9,6.672,1.688s5.219.934,6.459,1.742h4.848c2.072.393,4.671.51,5.806,1.114h1.768c2.355.953,9.628,1.536,13.411,1.74a62.047,62.047,0,0,1,7.538.723,7.837,7.837,0,0,0,2.868.8q4.455.655,8.638,1.434A6.081,6.081,0,0,1,669,53.9c.459.014.923.008,1.379,0a10.365,10.365,0,0,1,2.867.216,2.828,2.828,0,0,0,.76,0,21.607,21.607,0,0,1,3.529-.181,24.479,24.479,0,0,0,2.86-.1,5.68,5.68,0,0,1,1.768.089,22.482,22.482,0,0,1,6.831-.226c1.061-.177.849-.774,2.832-.656,2.39-.5,5.555-.627,8.033-1.1V50.762a11.183,11.183,0,0,1,3.8-.959,31.567,31.567,0,0,0,6.689-1.734,5.972,5.972,0,0,1,1.909-.447c1.612-.173,3.161-.387,4.617-.643,1.913-.31,4.193-.177,6.177-.406a13.386,13.386,0,0,1,1.769-.243,13.134,13.134,0,0,0,4.144.067,13.827,13.827,0,0,1,3.041-.067,25.194,25.194,0,0,0,4.427-.824c1.361-.294,1.679-.848,3.129-1.044a5.391,5.391,0,0,0,3.079-.919,33.352,33.352,0,0,1,4.76.414c.5.021,1.015.018,1.53.011a11.277,11.277,0,0,1,2.949.215,44.893,44.893,0,0,1,6.527-.429,7.439,7.439,0,0,0,1.576-.119,5.921,5.921,0,0,1,2.175-.035c.46-.367.371-.74,1.63-.961a28.136,28.136,0,0,1,4.193-.388c2.28-.048,4.176-.13,5.148-.812.725-.5,3.026-.451,4.458-.72a3.668,3.668,0,0,1,1.294.21l1.043-.259a11.119,11.119,0,0,0,4.388.066,28.15,28.15,0,0,1,4.441-.243,24.567,24.567,0,0,0,5.912-.824c1.312-.262,2.7-.5,4.14-.7a15.638,15.638,0,0,0,3.133-.575,14.488,14.488,0,0,1,3.4-.657,23.052,23.052,0,0,1,4.247.046c.965.072,1.94.144,2.955.128,2.4-.042,4.8-.042,7.2,0,1.333.021,2.62-.056,3.91-.133a42.813,42.813,0,0,1,4.586-.111,12.107,12.107,0,0,1,2.068.232c4.193-.564,7.732.118,11.166.4,3.15-.082,5.819-.738,8.938-.185a10.582,10.582,0,0,0,1.185,0,9.782,9.782,0,0,0,1.615-.122,7.856,7.856,0,0,1,2.048-.089,21.157,21.157,0,0,0,3.273.218,10.913,10.913,0,0,1,1.769.118,23.676,23.676,0,0,0,7.556.063c.159-.457,2.638-.616,1.931-1.1,2.758-.738,6.066-.608,9.271-.608h4.688a31.365,31.365,0,0,1,9.645-1.078l3.027.818a7.766,7.766,0,0,0,3.535-.435,18.4,18.4,0,0,0,4.675.239l1.432-.384a14.212,14.212,0,0,0,3.539.192l2.1-.639c.27-.018.527-.018.771-.016a5.061,5.061,0,0,0,1.23-.1,62.056,62.056,0,0,1,9.893-1.639,6.182,6.182,0,0,0,.955-.207c.657-.024,1.333-.021,2.015-.014a25.293,25.293,0,0,0,4.034-.188,6.233,6.233,0,0,1,2.9.235c2.6-.486,6.088-.331,8.762-.911,5.483.144,9.553-.546,12.562-1.728h2.546l4.78-1.3a44.519,44.519,0,0,1,8.228-.436c0-.374,1.114-.554,1.769-.735.131-.262-.11-.521-.672-.734l1.2-.066c.764-.207-.035-.48.569-.754,1.693-.38,2.775-.925,3.022-1.52l3.434-.931a10.7,10.7,0,0,0,1.977-.118,11.262,11.262,0,0,1,2.11-.115l3.362-.985c-.141-.531-2.832-1.03-.141-1.624a11.643,11.643,0,0,1,2.69.341,9.936,9.936,0,0,0,1.63.068,7.551,7.551,0,0,1,1.237.045c.654-.17.389-.368.973-.5.954-.222,2.156-.4,1.948-.873-.054-.105.76-.357,1.237-.357,2.546-.077,4.052-.66,6.99-.878a51.093,51.093,0,0,0,5.487-.089c1.658-.085,3.377-.165,5.127-.122.94.026,1.223-.232,2.071-.232.866,0,1.715-.045,2.567-.088a25.612,25.612,0,0,1,4.848.055,19.809,19.809,0,0,0,5.891-.244,5.087,5.087,0,0,1,1.382-.15,18.405,18.405,0,0,0,5.095-.564,50.984,50.984,0,0,1,7.91-1.13,9.921,9.921,0,0,0,3.114-.535,20.641,20.641,0,0,1,2.974-1c.46-.028.973-.028,1.592-.028,1.576-.765,4.352-1.26,6.6-1.971a12.769,12.769,0,0,0,5.926-.277c1.263-.363,2.616-.7,4.052-1.009,2.814-.534,6.178-.683,9.222-1.048a28.855,28.855,0,0,0,3.84-.624c2.956-.812,5.894-1.6,8.846-2.4,1.344-.07,2.73-.056,4.127-.04a41.5,41.5,0,0,0,6.738-.288c1.221-1.1,2.833-2.187,7.273-2.931,2.85.213,4.564-.757,7.874-.82a12.187,12.187,0,0,1,3.115.646c2.974-.288,5.47-.579,8.068-.812a36.9,36.9,0,0,1,5.664-.044c2.245.218,4.6.333,6.986.351a39.473,39.473,0,0,0,7.825,1.21c2.651.229,5.431.743,8.651.292a9.926,9.926,0,0,0,2.744.229c.389,0,.781,0,1.166.011.449.01.916,0,1.38-.02a9.965,9.965,0,0,1,2.8.166,14.852,14.852,0,0,1,4.406-.109c1.436.18,2.39.557,2.5.985a22.839,22.839,0,0,1,6.367.056,21.378,21.378,0,0,0,2.956-.444c.421.019.87.012,1.322,0a8.27,8.27,0,0,1,2.694.227l2.143-.606c.269-.025.548-.039.831-.043a42.82,42.82,0,0,0,7.078-.355,11.419,11.419,0,0,1,1.892-.077c1.651-.021,3.292-.085,4.9-.186s3.076-.287,4.618-.383a39.45,39.45,0,0,1,7.768.109,21.584,21.584,0,0,0,2.762-.4,31.368,31.368,0,0,1,7.2.4,40.959,40.959,0,0,1,4.812-.578,15.26,15.26,0,0,1,3.752.063,31.137,31.137,0,0,0,4.848,0c2.106-.081,4.176-.643,6.477-.162a23.994,23.994,0,0,1,4.247-.156c.194.061.336.1.53.144l10.794-.825c1.688-.3,3.462-.557,5.308-.775,1.645-.111,3.341-.142,5.024-.1l2.85-.771c2.415-.144,4.738-.384,6.884-.716,1.662,0,3.8-.023,5.626,0a17.254,17.254,0,0,0,1.976-.137,10.041,10.041,0,0,1,3.158-.007l-.124.048,3.292-.961c.679.026,1.375.018,2.068.008a18.425,18.425,0,0,1,3.945.222,5.588,5.588,0,0,0,1.047-.118,4.748,4.748,0,0,1,1.414-.1c2.245.191,4.706.2,6.831.6a8.42,8.42,0,0,0,1.556-.357,30.181,30.181,0,0,1,5.467.307c2.584.354,5.328.709,7.895,1.11.689.1,1.309.008,2.192.137a33.181,33.181,0,0,0,5.682,1.234h4.494a9.679,9.679,0,0,0,3.08,1.272,37.5,37.5,0,0,1,4.246,1.363c.548.14.105.32.3.479a30.292,30.292,0,0,0,5.519,1.1q2.323.333,4.459.746a27.741,27.741,0,0,0,6.212.646,11.06,11.06,0,0,1,2.727.295c1.944.4,4.353.3,6.367.571a2.81,2.81,0,0,0,1.348-.169,8.186,8.186,0,0,1,1.768.37,17.239,17.239,0,0,0,3.646-.181,14.453,14.453,0,0,1,4.264-.111,49.718,49.718,0,0,1,6.106.742c-.018.043.032.089.142.121.866.248,1.661.462,2.638.727.5.012,1.131.04,1.768.04.849.219,1.75.448,2.531.694a52.461,52.461,0,0,0,7.786,1.438,4.209,4.209,0,0,0,1.272.217,53.7,53.7,0,0,1,6.159.267,37.1,37.1,0,0,0,12.669,1.668,11.413,11.413,0,0,0,5.911,1.129,23.684,23.684,0,0,0,10.155,3.05c1.188.469,1.276,1.255,4.6,1.281a3.956,3.956,0,0,1,2.068.591,17.071,17.071,0,0,0,3.681,1.967c.654.3-.106.734,1.043.956s1.205.791,2.6.875,1.892.47,3.168.565c2.068-.086,3.645-.463,5.413-.67a2.5,2.5,0,0,1,.986.116,2.934,2.934,0,0,0,1.1.109,8.119,8.119,0,0,1,2.67.308c2.2.645,5.2,1.1,6.619,1.952a4.731,4.731,0,0,0,1.471.321,11.192,11.192,0,0,1,2.846.725,17.37,17.37,0,0,0,4.193.893c.658.291.27.712,1.771.871s1.645.63,3.274.694,2.3.509,3.84.646c1.131.125,1.9.413,2,.742h4.035l2.673.814a21.194,21.194,0,0,1,5.448.713h7.255c1.7.8,4.922.861,7.8,1.082,1.977.081,3.91.225,5.771.424a8.049,8.049,0,0,0,1.927,0,27.422,27.422,0,0,1,4.49-.205c.81.006,1.623.014,2.429-.012.817.839,3.593,1.066,5.982,1.273,1.733.15,3.7.232,5.484.354s3.115.576,5.148.551c2.867.686,6.53,1.07,9.256,1.809a22.652,22.652,0,0,0,5.2,1,51.438,51.438,0,0,1,8.072.683,16.833,16.833,0,0,1,6.173.093,7.791,7.791,0,0,0,1.871.146,5.707,5.707,0,0,0,1.668-.273c.672-.231,1.79-.213,2.567-.417a14.926,14.926,0,0,0,4.052,1.264,70.936,70.936,0,0,0,7.291.616c1.573-.178,3.1-.384,4.582-.613.229-.029.389-.145.565-.145,1.769.026,3.49-.052,5.212-.129s3.44-.155,5.212-.125a5.858,5.858,0,0,1,1.131.211c1.025-.02,1.769-.273,2.62-.234a6.947,6.947,0,0,0,2-.4,18.989,18.989,0,0,1,4.122.166l1.524-.41c.8.032,1.626.025,2.457.022a31.9,31.9,0,0,1,4.37.173,8.018,8.018,0,0,0,3.667-.191c3.059.147,3.571.926,5.448,1.283a17.184,17.184,0,0,1,3.589-.18,24.612,24.612,0,0,0,2.518-.037,53.793,53.793,0,0,1,6.05-.405L1652,40.7h4.494c.637-.233,2.334-.162,2.21-.639h4.052c.707-.111.548-.232.548-.336a16.673,16.673,0,0,1,4.374-.273c1.662-.8,5.555-.787,7.078-1.592.885.042,1.769.03,2.646.02a25.535,25.535,0,0,1,4.059.162l2.443-.373a9.772,9.772,0,0,1,1.768.225,38.922,38.922,0,0,1,8.655-.62,17.745,17.745,0,0,0,3.045.583c1.923-.014,3.847.019,5.749.1,1.856.188,3.638.424,5.307.713l1.665-.813c.248-.234.654-.561,2.016-.608a17.2,17.2,0,0,0,4.282-.616c1.241-.373,3.009-.69,3.009-1.255a10.724,10.724,0,0,1,3.079,0,17.017,17.017,0,0,0,2.086.117,11.5,11.5,0,0,1,3.455-.479,13.863,13.863,0,0,0,1.58-.1,12.769,12.769,0,0,1,2.083-.085,30.16,30.16,0,0,0,4.083-.211,5.936,5.936,0,0,1,1.472.122,5.134,5.134,0,0,0,2.068.049c.816.7,2.726,1.049,4.355,1.524,2.083.048,4.134.166,6.1.354a32.505,32.505,0,0,0,8.546-.313,33.434,33.434,0,0,1,3.9.121,28.557,28.557,0,0,0,4.5.077c1.771.269,3.3.705,5.311.226a14.184,14.184,0,0,0,3.08.188l2.3.764a83.214,83.214,0,0,1,8.733-.3c1.015,0,2.026,0,3.034-.011a6.442,6.442,0,0,0,3.186-.532c.689-.45,2.974-.281,4.409-.659a6.986,6.986,0,0,1,2.068-.684c2.708-.314,4.635.292,6.972.38a12.319,12.319,0,0,0,2.832.188c1.4-.288,3.894-.311,4.3-.769s2.051-.228,2.493-.517c2.726.038,5.063-.4,7.75-.443a13.193,13.193,0,0,0,3.133-.421c.5.016,1.015.012,1.541.012a21.6,21.6,0,0,1,3.593.181,11.893,11.893,0,0,0,3.058-.037c2.8-.409,4.728.134,7.521.48,1.825-.142,4.07.267,6.442.267,2.178.582,4.335,1.166,6.318,1.7a22.591,22.591,0,0,1,3.946.348,17.027,17.027,0,0,0,4.706.28c1.608.173,2.015.612,3.663.709,1.1.07,1.7.453,2.991.6s1.131.558,2.475.7a7.307,7.307,0,0,1,2.938.823,15.377,15.377,0,0,0,2.531.794c3.306.384,5.7-.207,8.352-.388a51.981,51.981,0,0,1,9.041-.158,14.626,14.626,0,0,1,3.256.611,40.042,40.042,0,0,0,9.345,1.835,41.885,41.885,0,0,0,6.563-.144,16.561,16.561,0,0,1,3.434-.9c.254.016,1.106-.04,1.973-.1.926-.054,1.867-.114,2.1-.084V543.871a11.333,11.333,0,0,1-1.538-.207,19.668,19.668,0,0,0-2.319,0l-2.391-.649h-4.264a28.185,28.185,0,0,1-7.573-.571,13.25,13.25,0,0,0-3.111-.276q-5.861-.018-11.683-.23a10.3,10.3,0,0,0-2.97.174,6.6,6.6,0,0,1-1.771,0c-1.556-.4-3.681-.034-5.448-.4-1.4-.294-3.646-.234-5.1-.571s-3.557-.476-4.231-.957a24.607,24.607,0,0,1-3.54-.194,44.389,44.389,0,0,0-8.1-.479,14.023,14.023,0,0,0-1.5.062c-2.333.462-5.324.546-8.1,1.026h-9.362c-1.326.355-1.662.864-3.43,1.09h-1.4c-.5.432-2.267.5-3.026.822a20.354,20.354,0,0,1-2.086.044,16.1,16.1,0,0,0-2.585.1,26.88,26.88,0,0,1-4.281.332l-3.115.842a5.88,5.88,0,0,1-1.464-.1,4.819,4.819,0,0,0-1.386-.1c-.92.107-2.068.146-2.775.255-1.518.167-2.949.386-4.265.651a43.97,43.97,0,0,1-6.654.612c-.272,0-.544,0-.816-.009a11.336,11.336,0,0,0-2.9.208,4.8,4.8,0,0,1-1.5,0c-1.523-.27-3.362-.27-4.886-.48a13.883,13.883,0,0,0-2.776,0c-3.38.136-6.707.254-10.069.48-3,.236-6.124.327-9.238.277-1.86-.122-3.752-.208-5.661-.252-5.112.052-10.141.351-15.288.266a33.724,33.724,0,0,0-4.158.387,56.354,56.354,0,0,1-7.326.452,12.334,12.334,0,0,1-1.521-.053c-2.814-.439-4.728.111-6.866.414-3.026.147-6.283.06-9.2.251s-6.174-.066-9.006.384v.211a5.272,5.272,0,0,1-.654.084c-.375-.014-.771,0-1.163.007a7.51,7.51,0,0,1-2.535-.205,6.535,6.535,0,0,0-.777,0c-3.929.313-8.4.08-12.067.866a25.912,25.912,0,0,0-6.213.551,28.031,28.031,0,0,1-5.558.558,28.52,28.52,0,0,0-6.315.8,67.6,67.6,0,0,1-10.812,1.325q-1.273.083-2.479.223a69.7,69.7,0,0,1-7.464.229c-.94,0-1.9-.008-2.868,0l-.887.324a35.358,35.358,0,0,1-5.526-.01,37.476,37.476,0,0,0-3.886-.094c-1.418.37-3.7.34-4.636.846h-5.717l-4.688,1.32a19.729,19.729,0,0,0-6.089.515,4.5,4.5,0,0,1-1.333.121,8.052,8.052,0,0,0-.947.037c-.8.326-2.514.477-2.727.956a18.252,18.252,0,0,1-6.618-.065,29.167,29.167,0,0,0-7.185-.456c-1.051.094-2.136.149-3.239.172-1.521-.308-2.457-.732-4.229-.956a13.708,13.708,0,0,0-2.917-.111,8.194,8.194,0,0,1-1.761.125,7.44,7.44,0,0,0-1.514.1,24.057,24.057,0,0,1-2.937.2c-.892.094-1.743.208-2.55.349-2.387-.057-4.193-.551-6.7-.61l-2.886-.778a94.36,94.36,0,0,0-10.388-.27,17.184,17.184,0,0,1-5.4-1.861c-4.353-.342-9.009-.251-12.548-1.173H1541.3c-1.873-.155-2.917-.853-5.413-.632a39.337,39.337,0,0,0-6.5-1.32h-2.619c-1.521-.511-2.069-1.137-4-1.551a14.344,14.344,0,0,0-6.386-.417,14.6,14.6,0,0,1-3.539,0,25.455,25.455,0,0,0-4.265-.186c-.969.012-1.916.025-2.814-.036a21.821,21.821,0,0,1-4.353.479,2.882,2.882,0,0,1-2.425-1.388c-3.7-.32-7.287-.69-9.5-1.646h-3.433l-3.681-.994v-1.756a15.589,15.589,0,0,0-3.274.059,14.5,14.5,0,0,1-3.274.053,8.353,8.353,0,0,1-3.539-1.3c-2.387-.472-5.679-.477-7.962-1.037a8.279,8.279,0,0,1-2.694.221,19.659,19.659,0,0,0-2.012.038,14.7,14.7,0,0,0-2.461.383,8.641,8.641,0,0,1-1.446-.114,5.9,5.9,0,0,0-1.276-.106,10.983,10.983,0,0,1-2.585.21l-8.315-1.49q-1.332.209-2.515.476c-.76.188.213.591-1.1.738.318.369-.449.741-1.768.858a5.678,5.678,0,0,0-2.567.932c-.672.162-2.248.148-3.114.425-3.381.066-6.549.328-9.841.48-1.36-.152-2.7-.326-4.122-.452a10.3,10.3,0,0,0-1.963,0,31.1,31.1,0,0,1-7.962-.13c-2.514-1.168-7.556-1.94-11.36-3.11-.816-.008-1.683-.036-2.585-.036a4.035,4.035,0,0,1-2.106-1.031c-2.3-.1-4.265-.562-6.952-.771a32.916,32.916,0,0,1-3.362-1.151c-2.071-.9-4.67-1.712-7.078-2.562a6.093,6.093,0,0,0-1.771-.1l-6.937-1.883c-.24-.5-1.155-.952-2.562-1.279a17.524,17.524,0,0,1-4.529-1.917,12.192,12.192,0,0,0-3.532-.025,14.736,14.736,0,0,1-2.31.1,18.82,18.82,0,0,0-2.853.111,21.05,21.05,0,0,1-2.825.118c-1.832-.04-3.674-.04-5.5,0a9.572,9.572,0,0,1-4.389-1.082,34.8,34.8,0,0,1-5.483-.34,27.509,27.509,0,0,0-7.98-.1h-.993a42.114,42.114,0,0,0-4.883-1.125,7.694,7.694,0,0,0-1.768-.17,7.1,7.1,0,0,1-2.674-.352,4.029,4.029,0,0,0-1.187-.091c-.269,0-.555.007-.849-.012-1.662-.686-5.166-.9-6.668-1.688s-5.223-.933-6.46-1.741h-4.852c-2.068-.391-4.67-.5-5.8-1.115h-1.768c-2.355-.952-9.628-1.534-13.415-1.738a62.41,62.41,0,0,1-7.538-.724,7.8,7.8,0,0,0-2.867-.8q-4.455-.658-8.634-1.435a6.137,6.137,0,0,1-1.008-.289c-.464-.019-.931-.01-1.387-.007a10.307,10.307,0,0,1-2.86-.215,3.028,3.028,0,0,0-.764,0,21.965,21.965,0,0,1-3.528.183,23.152,23.152,0,0,0-2.856.1,5.818,5.818,0,0,1-1.771-.084,22.492,22.492,0,0,1-6.828.221c-1.063.179-.852.775-2.832.657-2.39.5-5.558.629-8.033,1.108v1.17a11.157,11.157,0,0,1-3.8.959,31.562,31.562,0,0,0-6.689,1.735,6,6,0,0,1-1.913.446c-1.612.174-3.157.389-4.618.644-1.909.309-4.193.177-6.173.406a13.39,13.39,0,0,1-1.771.242,13.136,13.136,0,0,0-4.144-.069,13.834,13.834,0,0,1-3.041.069,25.315,25.315,0,0,0-4.423.823c-1.361.3-1.68.85-3.133,1.046a5.428,5.428,0,0,0-3.08.918,33.316,33.316,0,0,1-4.759-.412c-.5-.027-1.019-.023-1.531-.017a11.419,11.419,0,0,1-2.945-.209,45.223,45.223,0,0,1-6.53.428,7.339,7.339,0,0,0-1.584.115,5.905,5.905,0,0,1-2.167.043c-.46.362-.371.734-1.627.956a27.645,27.645,0,0,1-4.193.389c-2.284.047-4.176.129-5.147.815-.729.5-3.027.447-4.463.716a3.579,3.579,0,0,1-1.29-.211l-1.043.26a11.194,11.194,0,0,0-4.388-.066,28.165,28.165,0,0,1-4.444.242,24.726,24.726,0,0,0-5.908.823q-1.973.394-4.141.705a15.554,15.554,0,0,0-3.133.573,14.493,14.493,0,0,1-3.4.656,22.946,22.946,0,0,1-4.254-.048c-.965-.071-1.937-.14-2.948-.125-2.4.04-4.806.04-7.2,0-1.337-.026-2.624.051-3.914.129a43.7,43.7,0,0,1-4.579.115,11.629,11.629,0,0,1-2.072-.233c-4.193.565-7.732-.114-11.162-.395-3.15.08-5.823.738-8.938.186a10.12,10.12,0,0,0-1.184,0,9.62,9.62,0,0,0-1.62.116,7.964,7.964,0,0,1-2.043.093,21.54,21.54,0,0,0-3.274-.218,10.544,10.544,0,0,1-1.768-.118,23.733,23.733,0,0,0-7.556-.062c-.159.461-2.638.617-1.931,1.1-2.758.737-6.071.61-9.271.61h-4.688a31.308,31.308,0,0,1-9.646,1.077l-3.026-.82a7.875,7.875,0,0,0-3.54.437,18.582,18.582,0,0,0-4.67-.239l-1.433.383a14.226,14.226,0,0,0-3.539-.191l-2.107.643c-.265.01-.516.01-.757.01a4.719,4.719,0,0,0-1.24.1,61.959,61.959,0,0,1-9.894,1.639,6.439,6.439,0,0,0-.954.206c-.661.022-1.333.02-2.012.012a24.729,24.729,0,0,0-4.042.2,6.235,6.235,0,0,1-2.9-.238c-2.6.486-6.085.331-8.758.915-5.484-.145-9.554.542-12.562,1.725h-2.55l-4.776,1.3a44.194,44.194,0,0,1-8.228.436c0,.374-1.117.554-1.771.737-.127.26.113.518.672.732-.425.025-.8.044-1.2.065-.761.208.035.48-.565.754-1.694.384-2.776.927-3.027,1.521l-3.433.93a10.632,10.632,0,0,0-1.97.113,10.913,10.913,0,0,1-2.118.118l-3.362.986c.146.532,2.832,1.029.146,1.625a11.7,11.7,0,0,1-2.691-.34,9.2,9.2,0,0,0-1.626-.07,7.711,7.711,0,0,1-1.241-.045c-.654.175-.389.37-.972.507-.959.222-2.161.394-1.948.87.053.107-.761.357-1.238.357-2.549.077-4.052.662-6.989.88a49.184,49.184,0,0,0-5.491.088c-1.658.081-3.38.167-5.127.122-.937-.021-1.22.231-2.068.231-.866,0-1.708.042-2.557.089a26.105,26.105,0,0,1-4.857-.05,19.675,19.675,0,0,0-5.895.242,5.168,5.168,0,0,1-1.379.148,18.453,18.453,0,0,0-5.1.564,51.034,51.034,0,0,1-7.905,1.13,9.986,9.986,0,0,0-3.115.535,20.412,20.412,0,0,1-2.974,1c-.46.029-.973.029-1.591.029-1.577.767-4.356,1.259-6.6,1.972a12.826,12.826,0,0,0-5.93.276c-1.259.362-2.616.7-4.052,1.008-2.814.536-6.173.684-9.218,1.049a28.576,28.576,0,0,0-3.84.626c-2.955.81-5.894,1.6-8.85,2.395-1.347.068-2.74.055-4.14.039a40.842,40.842,0,0,0-6.722.291c-1.224,1.1-2.832,2.183-7.273,2.929-2.85-.214-4.567.757-7.877.818a11.78,11.78,0,0,1-3.111-.646c-2.974.287-5.47.58-8.069.813a37.532,37.532,0,0,1-5.664.045c-2.248-.215-4.606-.333-6.99-.352a39.451,39.451,0,0,0-7.82-1.211c-2.655-.228-5.432-.742-8.652-.292a9.994,9.994,0,0,0-2.747-.231c-.389,0-.781,0-1.163-.009-.453-.015-.92,0-1.383.016a9.83,9.83,0,0,1-2.793-.163,14.872,14.872,0,0,1-4.405.115c-1.436-.186-2.394-.562-2.5-.989a22.654,22.654,0,0,1-6.372-.055,21.71,21.71,0,0,0-2.956.441c-.424-.021-.873-.013-1.325,0a8.26,8.26,0,0,1-2.69-.221l-2.14.61c-.269.021-.548.036-.831.039a42.614,42.614,0,0,0-7.078.355,11.466,11.466,0,0,1-1.9.077c-1.651.022-3.292.085-4.9.188-1.626.09-3.079.284-4.617.381a39.84,39.84,0,0,1-7.769-.107,20.666,20.666,0,0,0-2.761.4,31.707,31.707,0,0,1-7.2-.4,41.938,41.938,0,0,1-4.812.576,15.309,15.309,0,0,1-3.752-.062,31.125,31.125,0,0,0-4.847,0c-2.107.082-4.176.643-6.478.162a23.906,23.906,0,0,1-4.247.154c-.194-.059-.335-.095-.53-.144l-10.794.831c-1.687.294-3.465.554-5.308.771-1.644.111-3.345.144-5.027.1l-2.847.771c-2.418.144-4.737.387-6.884.72-1.665,0-3.8.018-5.629,0a17.279,17.279,0,0,0-1.99.13,10.067,10.067,0,0,1-3.14.014l.123-.048-3.291.957c-.687-.029-1.379-.019-2.076-.012a18.855,18.855,0,0,1-3.942-.217,5.231,5.231,0,0,0-1.05.113,5.387,5.387,0,0,1-1.046.118C620.316,569.153,620.2,569.15,620.068,569.139Z" transform="translate(1.998 485.275)"/></clipPath><clipPath id="b"><rect class="b" width="731.293" height="181.807"/></clipPath><clipPath id="d"><rect class="b" width="786.074" height="173.327"/></clipPath><clipPath id="f"><rect class="b" width="787.334" height="192.808"/></clipPath><clipPath id="h"><rect class="b" width="781.595" height="163.959"/></clipPath></defs><g transform="translate(1.636 -2817.718)"><path class="c" d="M-13468.942,9422.7c-2.246-.187-4.7-.2-6.823-.6a8.67,8.67,0,0,0-1.555.358,30.326,30.326,0,0,1-5.464-.307c-2.582-.354-5.318-.708-7.883-1.107-.689-.106-1.308-.011-2.19-.141a33.262,33.262,0,0,0-5.676-1.229h-4.489a9.577,9.577,0,0,0-3.076-1.273,38.079,38.079,0,0,1-4.242-1.365c-.548-.137-.105-.32-.3-.479a30.581,30.581,0,0,0-5.518-1.1c-1.544-.222-3.034-.469-4.454-.746a27.65,27.65,0,0,0-6.2-.646,11.065,11.065,0,0,1-2.723-.3c-1.946-.4-4.348-.3-6.365-.571a2.807,2.807,0,0,0-1.342.169,8.253,8.253,0,0,1-1.77-.369,17.09,17.09,0,0,0-3.639.182,14.444,14.444,0,0,1-4.263.11,48.838,48.838,0,0,1-6.1-.741c.018-.045-.035-.089-.142-.123-.865-.246-1.663-.46-2.634-.723-.494-.015-1.131-.045-1.767-.045-.851-.217-1.752-.446-2.528-.694a52.485,52.485,0,0,0-7.778-1.436,4.265,4.265,0,0,0-1.275-.218,52.645,52.645,0,0,1-6.148-.266,37,37,0,0,0-12.656-1.669,11.406,11.406,0,0,0-5.9-1.129,23.682,23.682,0,0,0-10.148-3.049c-1.183-.469-1.271-1.252-4.595-1.281a3.938,3.938,0,0,1-2.066-.587,16.993,16.993,0,0,0-3.677-1.972c-.653-.3.105-.734-1.045-.955s-1.2-.79-2.6-.875-1.894-.469-3.164-.564c-2.07.084-3.642.461-5.408.668a2.635,2.635,0,0,1-.992-.114,2.806,2.806,0,0,0-1.095-.111,7.978,7.978,0,0,1-2.67-.306c-2.19-.646-5.2-1.1-6.608-1.954a4.817,4.817,0,0,0-1.471-.321,11.18,11.18,0,0,1-2.847-.72,16.994,16.994,0,0,0-4.188-.9c-.654-.293-.265-.713-1.766-.872s-1.646-.631-3.271-.694-2.3-.506-3.836-.646c-1.13-.125-1.9-.414-2-.742h-4.033l-2.667-.812a21.2,21.2,0,0,1-5.446-.717h-7.248c-1.7-.8-4.913-.859-7.795-1.082-1.975-.08-3.907-.225-5.762-.424a8.057,8.057,0,0,0-1.928,0,27.853,27.853,0,0,1-4.489.2c-.809-.007-1.621-.015-2.423.016-.812-.839-3.585-1.068-5.973-1.274-1.73-.151-3.694-.233-5.481-.351a51.4,51.4,0,0,0-5.143-.555c-2.864-.686-6.524-1.07-9.244-1.809a22.638,22.638,0,0,0-5.2-1,51.184,51.184,0,0,1-8.061-.683,16.886,16.886,0,0,1-6.171-.092,7.627,7.627,0,0,0-1.864-.144,5.559,5.559,0,0,0-1.667.269c-.675.236-1.787.214-2.564.417a14.921,14.921,0,0,0-4.048-1.259,69.592,69.592,0,0,0-7.283-.62q-2.358.272-4.577.612c-.229.03-.389.145-.565.145-1.77-.03-3.489.048-5.206.126s-3.44.155-5.207.129a5.734,5.734,0,0,1-1.13-.21c-1.027.018-1.77.272-2.617.236a7.01,7.01,0,0,0-2,.4,18.91,18.91,0,0,1-4.118-.166l-1.52.41c-.809-.038-1.628-.03-2.458-.027a32.283,32.283,0,0,1-4.365-.169,7.993,7.993,0,0,0-3.658.191c-3.06-.147-3.572-.927-5.444-1.28a17.737,17.737,0,0,1-3.6.177,23.291,23.291,0,0,0-2.5.037,52.822,52.822,0,0,1-6.043.406l-1.77.656h-4.489c-.636.232-2.334.163-2.211.643h-4.048c-.707.107-.548.229-.548.336a16.659,16.659,0,0,1-4.365.27c-1.66.8-5.549.786-7.071,1.592-.887-.045-1.77-.034-2.646-.022a26.411,26.411,0,0,1-4.054-.159l-2.438.373a9.476,9.476,0,0,1-1.77-.226,38.439,38.439,0,0,1-8.643.62,18,18,0,0,0-3.04-.583c-1.922.019-3.847-.015-5.743-.1-1.858-.185-3.635-.425-5.307-.712l-1.659.812c-.248.236-.653.561-2.018.609a17.179,17.179,0,0,0-4.276.616c-1.236.373-3.006.69-3.006,1.255a10.83,10.83,0,0,1-3.069-.007,16.259,16.259,0,0,0-2.091-.111,11.421,11.421,0,0,1-3.447.477,13.011,13.011,0,0,0-1.583.1,12.685,12.685,0,0,1-2.076.089,30.534,30.534,0,0,0-4.084.21,5.986,5.986,0,0,1-1.469-.126,5.065,5.065,0,0,0-2.066-.044c-.812-.7-2.723-1.048-4.348-1.523-2.08-.05-4.129-.167-6.1-.355a32.307,32.307,0,0,0-8.536.314,35.572,35.572,0,0,1-3.91-.122,28.026,28.026,0,0,0-4.486-.078c-1.766-.269-3.287-.7-5.3-.226a14.18,14.18,0,0,0-3.077-.187l-2.3-.765a83.9,83.9,0,0,1-8.728.3c-1.014,0-2.024,0-3.027.015a6.442,6.442,0,0,0-3.182.532c-.688.449-2.967.284-4.4.66a7.161,7.161,0,0,1-2.065.687c-2.706.31-4.634-.295-6.966-.384a12.25,12.25,0,0,0-2.829-.188c-1.395.288-3.889.314-4.295.768s-2.052.229-2.494.518c-2.72-.034-5.054.4-7.741.442a13.379,13.379,0,0,0-3.126.421c-.5-.019-1.024-.015-1.554-.012a22.579,22.579,0,0,1-3.575-.176,11.772,11.772,0,0,0-3.059.032c-2.794.41-4.719-.129-7.513-.479-1.818.141-4.065-.263-6.432-.263-2.176-.586-4.331-1.169-6.312-1.709a22.771,22.771,0,0,1-3.944-.351,16.915,16.915,0,0,0-4.7-.276c-1.611-.174-2.018-.612-3.66-.709-1.1-.066-1.7-.454-2.987-.6s-1.131-.558-2.477-.7a7.343,7.343,0,0,1-2.932-.827,15.539,15.539,0,0,0-2.529-.794c-3.306-.384-5.693.207-8.342.388a51.622,51.622,0,0,1-9.035.158,14.437,14.437,0,0,1-3.253-.612,40.087,40.087,0,0,0-9.332-1.834,42.438,42.438,0,0,0-6.559.144,16.453,16.453,0,0,1-3.426.9c-.259-.019-1.113.036-1.975.093-.929.059-1.869.114-2.095.089V8878.849a11.023,11.023,0,0,1,1.539.2,19.424,19.424,0,0,0,2.317,0l2.384.654h4.261a27.921,27.921,0,0,1,7.565.567,13.314,13.314,0,0,0,3.111.277c3.9.012,7.8.089,11.666.229a10.448,10.448,0,0,0,2.971-.169,6.372,6.372,0,0,1,1.767,0c1.557.395,3.677.032,5.446.395,1.4.3,3.641.236,5.09.571s3.553.477,4.224.957a24.777,24.777,0,0,1,3.535.2,44.4,44.4,0,0,0,8.1.479,13.061,13.061,0,0,0,1.5-.062c2.331-.462,5.319-.546,8.1-1.026h9.35c1.327-.351,1.663-.863,3.429-1.089h1.4c.494-.432,2.264-.5,3.023-.823a19.746,19.746,0,0,1,2.084-.048,16.544,16.544,0,0,0,2.582-.1,27.013,27.013,0,0,1,4.281-.332l3.107-.843a5.587,5.587,0,0,1,1.47.1,5.159,5.159,0,0,0,1.377.1c.918-.111,2.07-.145,2.776-.259,1.516-.166,2.945-.384,4.26-.646a42.825,42.825,0,0,1,6.647-.612c.274,0,.555,0,.834,0a11.545,11.545,0,0,0,2.878-.2,4.753,4.753,0,0,1,1.5,0c1.523.271,3.359.271,4.882.48a13.844,13.844,0,0,0,2.772,0c3.376-.137,6.7-.255,10.059-.48,2.992-.235,6.114-.328,9.226-.276,1.861.121,3.751.207,5.658.255,5.108-.056,10.127-.354,15.273-.271a32.97,32.97,0,0,0,4.153-.387,56.56,56.56,0,0,1,7.318-.451,12.143,12.143,0,0,1,1.519.052c2.812.443,4.719-.109,6.859-.409,3.023-.148,6.272-.062,9.19-.255s6.171.067,9-.384v-.21a5.1,5.1,0,0,1,.653-.086c.377.012.777,0,1.177-.007a7.391,7.391,0,0,1,2.518.207,6.753,6.753,0,0,0,.777,0c3.924-.314,8.4-.082,12.055-.863a26.051,26.051,0,0,0,6.206-.555,27.828,27.828,0,0,1,5.549-.557,28.539,28.539,0,0,0,6.312-.8,67.535,67.535,0,0,1,10.8-1.325c.845-.055,1.675-.13,2.477-.218a68.373,68.373,0,0,1,7.466-.236c.937,0,1.887.008,2.854,0l.883-.325a34.492,34.492,0,0,1,5.5.008,37.539,37.539,0,0,0,3.9.1c1.412-.369,3.694-.34,4.63-.846h5.712l4.684-1.321a19.54,19.54,0,0,0,6.078-.513,4.439,4.439,0,0,1,1.339-.125,8.184,8.184,0,0,0,.942-.03c.795-.328,2.512-.479,2.724-.96a18.176,18.176,0,0,1,6.608.067,29.313,29.313,0,0,0,7.177.458c1.049-.1,2.137-.152,3.235-.175,1.519.307,2.458.731,4.225.956a13.772,13.772,0,0,0,2.917.111,7.789,7.789,0,0,1,1.756-.129,7.779,7.779,0,0,0,1.516-.093,23.6,23.6,0,0,1,2.936-.2c.89-.093,1.74-.207,2.542-.347,2.388.055,4.188.554,6.7.608l2.882.783a94.1,94.1,0,0,0,10.374.266,17.038,17.038,0,0,1,5.393,1.864c4.348.34,9,.247,12.531,1.17h3.889c1.876.154,2.918.853,5.412.631a38.834,38.834,0,0,0,6.484,1.322h2.617c1.522.509,2.07,1.137,4,1.55a14.325,14.325,0,0,0,6.382.417,14.571,14.571,0,0,1,3.536,0,24.86,24.86,0,0,0,4.259.182c.964-.012,1.911-.026,2.808.04a22.005,22.005,0,0,1,4.353-.479,2.892,2.892,0,0,1,2.419,1.388c3.694.321,7.283.689,9.494,1.65h3.43l3.678.989v1.756a15.158,15.158,0,0,0,3.27-.062,14.059,14.059,0,0,1,3.268-.048,8.3,8.3,0,0,1,3.536,1.3c2.387.472,5.676.477,7.957,1.037a8.139,8.139,0,0,1,2.688-.226c.646.012,1.328.022,2.014-.032a14.671,14.671,0,0,0,2.455-.385,8.55,8.55,0,0,1,1.444.111,5.86,5.86,0,0,0,1.278.11,10.876,10.876,0,0,1,2.582-.21l8.308,1.494c.883-.144,1.723-.3,2.507-.479.764-.188-.207-.591,1.1-.738-.32-.365.445-.737,1.767-.86a5.558,5.558,0,0,0,2.564-.93c.671-.163,2.246-.147,3.111-.425,3.377-.066,6.537-.324,9.826-.479,1.363.155,2.706.324,4.118.45a10.308,10.308,0,0,0,1.964,0,31.176,31.176,0,0,1,7.954.129c2.512,1.174,7.549,1.941,11.349,3.112.813.007,1.682.036,2.582.036a4.052,4.052,0,0,1,2.1,1.031c2.3.106,4.26.561,6.947.771a32.526,32.526,0,0,1,3.359,1.152c2.07.9,4.666,1.716,7.07,2.562a6.1,6.1,0,0,0,1.767.1l6.93,1.883c.244.5,1.155.952,2.564,1.281a17.465,17.465,0,0,1,4.524,1.916,12.308,12.308,0,0,0,3.525.021,14.219,14.219,0,0,1,2.306-.1,18.837,18.837,0,0,0,2.847-.115,21.461,21.461,0,0,1,2.829-.114c1.83.041,3.667.041,5.5,0a9.536,9.536,0,0,1,4.38,1.082,35.034,35.034,0,0,1,5.481.34,27.311,27.311,0,0,0,7.972.1h.989a41.76,41.76,0,0,0,4.881,1.126,7.579,7.579,0,0,0,1.767.17,7.138,7.138,0,0,1,2.67.351,4,4,0,0,0,1.184.089c.269,0,.55-.007.848.015,1.663.687,5.164.9,6.665,1.687s5.213.935,6.452,1.743h4.843c2.07.392,4.666.509,5.8,1.114h1.766c2.353.952,9.618,1.535,13.4,1.739a62.128,62.128,0,0,1,7.53.723,7.835,7.835,0,0,0,2.864.8q4.45.652,8.629,1.433a6.04,6.04,0,0,1,1.007.287c.459.015.922.007,1.378,0a10.379,10.379,0,0,1,2.864.217,2.82,2.82,0,0,0,.759,0,21.67,21.67,0,0,1,3.525-.18,24.42,24.42,0,0,0,2.857-.1,5.666,5.666,0,0,1,1.766.089,22.376,22.376,0,0,1,6.824-.226c1.06-.176.848-.774,2.829-.656,2.387-.5,5.549-.627,8.024-1.1v-1.173a11.138,11.138,0,0,1,3.8-.96,31.387,31.387,0,0,0,6.683-1.735,5.994,5.994,0,0,1,1.907-.446c1.61-.174,3.158-.388,4.612-.643,1.911-.31,4.189-.177,6.171-.405a13.187,13.187,0,0,1,1.767-.244,13.1,13.1,0,0,0,4.139.066,13.918,13.918,0,0,1,3.038-.066,25.139,25.139,0,0,0,4.422-.823c1.36-.295,1.678-.849,3.126-1.044a5.4,5.4,0,0,0,3.076-.92,33.008,33.008,0,0,1,4.755.414c.5.022,1.014.018,1.528.011a11.3,11.3,0,0,1,2.946.214,44.938,44.938,0,0,1,6.521-.428,7.488,7.488,0,0,0,1.574-.118,5.928,5.928,0,0,1,2.173-.037c.459-.366.371-.739,1.628-.96a28.212,28.212,0,0,1,4.189-.388c2.277-.048,4.171-.13,5.143-.812.724-.5,3.023-.45,4.454-.72a3.634,3.634,0,0,1,1.292.21l1.042-.259a11.131,11.131,0,0,0,4.383.067,27.981,27.981,0,0,1,4.438-.244,24.665,24.665,0,0,0,5.905-.823c1.311-.263,2.694-.5,4.136-.7a15.765,15.765,0,0,0,3.13-.574,14.4,14.4,0,0,1,3.394-.658,23.173,23.173,0,0,1,4.242.045c.964.073,1.938.144,2.952.129q3.593-.062,7.192,0c1.331.022,2.617-.056,3.905-.133a42.739,42.739,0,0,1,4.582-.111,12.071,12.071,0,0,1,2.065.232c4.189-.564,7.725.118,11.154.4,3.147-.081,5.813-.738,8.93-.185a10.565,10.565,0,0,0,1.184,0,9.766,9.766,0,0,0,1.613-.122,7.841,7.841,0,0,1,2.046-.089,21.223,21.223,0,0,0,3.27.219,10.666,10.666,0,0,1,1.767.118,23.683,23.683,0,0,0,7.548.062c.159-.456,2.636-.615,1.929-1.1,2.755-.738,6.061-.608,9.261-.608h4.684a31.306,31.306,0,0,1,9.635-1.078l3.024.819a7.775,7.775,0,0,0,3.531-.436,18.406,18.406,0,0,0,4.67.239l1.431-.383a14.186,14.186,0,0,0,3.535.191l2.1-.639c.269-.019.526-.019.771-.015a5,5,0,0,0,1.229-.1,61.837,61.837,0,0,1,9.883-1.638,6.53,6.53,0,0,0,.954-.207c.656-.025,1.332-.022,2.013-.016a25.231,25.231,0,0,0,4.029-.187,6.233,6.233,0,0,1,2.9.235c2.6-.486,6.082-.331,8.753-.911,5.478.144,9.543-.547,12.549-1.728h2.543l4.775-1.3a44.511,44.511,0,0,1,8.219-.436c0-.373,1.113-.554,1.767-.733.131-.263-.11-.521-.671-.735l1.2-.066c.763-.207-.035-.48.568-.754,1.691-.38,2.772-.926,3.02-1.52l3.43-.931a10.764,10.764,0,0,0,1.975-.118,11.164,11.164,0,0,1,2.108-.114l3.358-.986c-.141-.531-2.829-1.029-.141-1.624a11.579,11.579,0,0,1,2.688.341,10.023,10.023,0,0,0,1.628.069,7.317,7.317,0,0,1,1.235.045c.654-.171.389-.369.972-.506.953-.222,2.154-.4,1.946-.872-.054-.107.76-.357,1.236-.357,2.543-.078,4.048-.661,6.983-.879a51.228,51.228,0,0,0,5.481-.088c1.656-.086,3.373-.166,5.121-.122.939.025,1.222-.232,2.069-.232.865,0,1.713-.045,2.564-.089a25.479,25.479,0,0,1,4.843.055,19.836,19.836,0,0,0,5.885-.243,5.034,5.034,0,0,1,1.38-.151,18.373,18.373,0,0,0,5.09-.564,51.01,51.01,0,0,1,7.9-1.13,9.9,9.9,0,0,0,3.11-.535,20.522,20.522,0,0,1,2.971-1c.46-.03.972-.03,1.59-.03,1.575-.764,4.348-1.259,6.594-1.971a12.718,12.718,0,0,0,5.92-.277q1.893-.542,4.048-1.007c2.812-.535,6.171-.684,9.212-1.05a28.994,28.994,0,0,0,3.836-.622c2.953-.813,5.888-1.6,8.836-2.4,1.343-.07,2.728-.056,4.123-.041a41.2,41.2,0,0,0,6.731-.287c1.219-1.1,2.83-2.186,7.266-2.932,2.847.215,4.56-.756,7.866-.819a12.113,12.113,0,0,1,3.111.646c2.971-.289,5.464-.58,8.061-.812a36.944,36.944,0,0,1,5.658-.044c2.242.217,4.6.332,6.979.351a39.4,39.4,0,0,0,7.817,1.21c2.648.229,5.425.742,8.643.292a9.9,9.9,0,0,0,2.741.229c.388,0,.78,0,1.165.011.448.011.915,0,1.378-.02a9.907,9.907,0,0,1,2.793.167,14.787,14.787,0,0,1,4.4-.11c1.435.181,2.388.557,2.494.984a22.863,22.863,0,0,1,6.36.057,21.485,21.485,0,0,0,2.953-.443c.42.018.869.011,1.32,0a8.262,8.262,0,0,1,2.692.225l2.14-.605c.269-.025.548-.04.83-.044a42.633,42.633,0,0,0,7.071-.354,11.39,11.39,0,0,1,1.89-.077c1.649-.021,3.288-.085,4.9-.185s3.072-.288,4.613-.384a39.36,39.36,0,0,1,7.759.11,21.868,21.868,0,0,0,2.759-.4,31.308,31.308,0,0,1,7.2.4,40.625,40.625,0,0,1,4.807-.579,15.278,15.278,0,0,1,3.748.063,31.062,31.062,0,0,0,4.842,0c2.1-.081,4.172-.643,6.471-.162a23.941,23.941,0,0,1,4.242-.155c.194.059.336.1.529.144l10.783-.827c1.686-.3,3.458-.557,5.3-.774,1.644-.111,3.338-.141,5.02-.1l2.847-.772c2.412-.144,4.733-.383,6.877-.715,1.66,0,3.8-.022,5.62,0a16.984,16.984,0,0,0,1.973-.137,10.051,10.051,0,0,1,3.155-.008l-.124.048,3.289-.96c.678.026,1.373.019,2.066.008a18.317,18.317,0,0,1,3.94.222,5.567,5.567,0,0,0,1.046-.118,4.709,4.709,0,0,1,1.413-.1c2.242.192,4.7.2,6.823.6a8.409,8.409,0,0,0,1.555-.357,30.116,30.116,0,0,1,5.461.307c2.581.354,5.322.709,7.887,1.11.688.1,1.307.008,2.189.137a33.15,33.15,0,0,0,5.676,1.233h4.489a9.631,9.631,0,0,0,3.077,1.273,37.69,37.69,0,0,1,4.242,1.362c.547.14.1.321.3.479a30.421,30.421,0,0,0,5.513,1.1q2.322.333,4.455.745a27.737,27.737,0,0,0,6.205.646,11.082,11.082,0,0,1,2.724.295c1.942.4,4.348.3,6.36.572a2.8,2.8,0,0,0,1.347-.17,8.291,8.291,0,0,1,1.766.369,17.2,17.2,0,0,0,3.642-.18,14.427,14.427,0,0,1,4.26-.111,49.423,49.423,0,0,1,6.1.742c-.018.044.032.089.142.121.865.248,1.659.462,2.635.727.5.012,1.13.041,1.766.041.848.219,1.748.446,2.529.694a52.094,52.094,0,0,0,7.777,1.436,4.2,4.2,0,0,0,1.271.219,53.572,53.572,0,0,1,6.152.266,37.027,37.027,0,0,0,12.656,1.668,11.407,11.407,0,0,0,5.9,1.13,23.687,23.687,0,0,0,10.146,3.05c1.186.468,1.274,1.255,4.6,1.28a3.961,3.961,0,0,1,2.066.59,17.031,17.031,0,0,0,3.677,1.968c.653.3-.106.734,1.042.957s1.2.79,2.6.874,1.89.47,3.164.565c2.066-.086,3.642-.462,5.408-.669a2.459,2.459,0,0,1,.985.115,2.939,2.939,0,0,0,1.1.11,8.034,8.034,0,0,1,2.668.307c2.192.646,5.2,1.1,6.611,1.952a4.7,4.7,0,0,0,1.47.321,11.169,11.169,0,0,1,2.843.724,17.284,17.284,0,0,0,4.188.894c.658.291.27.713,1.771.87s1.643.632,3.271.694,2.3.51,3.836.646c1.13.126,1.9.413,2,.741h4.031l2.67.816a21.118,21.118,0,0,1,5.442.712h7.247c1.7.8,4.917.86,7.8,1.082,1.975.082,3.906.226,5.765.424a7.933,7.933,0,0,0,1.925,0,27.357,27.357,0,0,1,4.485-.206c.809.008,1.621.015,2.426-.011.816.838,3.589,1.066,5.977,1.273,1.731.15,3.7.232,5.479.354s3.112.576,5.144.551c2.864.687,6.523,1.07,9.246,1.809a22.6,22.6,0,0,0,5.2,1,51.492,51.492,0,0,1,8.064.684,16.817,16.817,0,0,1,6.166.093,7.774,7.774,0,0,0,1.869.146,5.66,5.66,0,0,0,1.666-.273c.671-.232,1.788-.214,2.564-.417a14.9,14.9,0,0,0,4.048,1.264,70.571,70.571,0,0,0,7.283.615c1.572-.177,3.1-.383,4.578-.612.229-.029.388-.144.564-.144,1.767.025,3.486-.052,5.206-.13s3.438-.154,5.207-.125a5.861,5.861,0,0,1,1.13.211c1.023-.02,1.767-.273,2.617-.233a7,7,0,0,0,2-.4,18.941,18.941,0,0,1,4.117.167l1.523-.41c.8.032,1.624.025,2.454.022a31.521,31.521,0,0,1,4.365.173,8,8,0,0,0,3.663-.192c3.056.147,3.568.927,5.443,1.285a17.076,17.076,0,0,1,3.585-.181,24.836,24.836,0,0,0,2.515-.037,53.686,53.686,0,0,1,6.044-.405l1.769-.658h4.489c.636-.232,2.332-.162,2.208-.638h4.047c.707-.111.548-.232.548-.337a16.719,16.719,0,0,1,4.369-.273c1.66-.8,5.549-.786,7.071-1.59.884.04,1.767.029,2.643.018a25.822,25.822,0,0,1,4.054.162l2.441-.372a9.837,9.837,0,0,1,1.766.225,38.84,38.84,0,0,1,8.646-.62,17.7,17.7,0,0,0,3.041.584c1.921-.015,3.843.018,5.743.1,1.854.188,3.634.424,5.3.713l1.663-.812c.248-.236.653-.562,2.014-.609a17.166,17.166,0,0,0,4.277-.616c1.24-.372,3.006-.69,3.006-1.256a10.7,10.7,0,0,1,3.076,0,17.16,17.16,0,0,0,2.084.118,11.435,11.435,0,0,1,3.451-.48,14.05,14.05,0,0,0,1.578-.1,12.633,12.633,0,0,1,2.081-.086,30.273,30.273,0,0,0,4.079-.21,5.88,5.88,0,0,1,1.47.121,5.124,5.124,0,0,0,2.066.049c.815.7,2.723,1.048,4.351,1.524,2.081.048,4.13.166,6.1.354a32.358,32.358,0,0,0,8.537-.312,33.351,33.351,0,0,1,3.9.121,28.508,28.508,0,0,0,4.5.077c1.77.27,3.292.706,5.3.226a14.217,14.217,0,0,0,3.077.188l2.295.764a83.047,83.047,0,0,1,8.725-.3c1.014,0,2.024,0,3.031-.011a6.44,6.44,0,0,0,3.182-.531c.689-.451,2.971-.281,4.405-.661a7.024,7.024,0,0,1,2.065-.683c2.705-.314,4.63.291,6.965.38a12.238,12.238,0,0,0,2.829.188c1.4-.287,3.89-.31,4.295-.768s2.049-.229,2.491-.517c2.723.037,5.057-.4,7.741-.442a13.217,13.217,0,0,0,3.13-.421c.5.015,1.014.011,1.539.011a21.669,21.669,0,0,1,3.59.181,11.906,11.906,0,0,0,3.054-.037c2.794-.409,4.723.134,7.513.48,1.823-.141,4.066.266,6.436.266,2.176.584,4.331,1.167,6.313,1.705a22.552,22.552,0,0,1,3.942.348,16.989,16.989,0,0,0,4.7.28c1.606.174,2.012.613,3.659.709,1.094.07,1.694.453,2.987.6s1.13.558,2.473.7a7.3,7.3,0,0,1,2.936.823,15.44,15.44,0,0,0,2.528.794c3.3.384,5.69-.207,8.343-.388a52.078,52.078,0,0,1,9.031-.159,14.587,14.587,0,0,1,3.253.613,40.009,40.009,0,0,0,9.335,1.835,42.039,42.039,0,0,0,6.556-.144,16.342,16.342,0,0,1,3.43-.9c.254.015,1.105-.041,1.971-.1.925-.056,1.865-.114,2.095-.085V9397.43a11.627,11.627,0,0,1-1.536-.206,19.223,19.223,0,0,0-2.317,0l-2.388-.65h-4.26a28.048,28.048,0,0,1-7.565-.572,13.325,13.325,0,0,0-3.107-.276q-5.855-.016-11.671-.229a10.314,10.314,0,0,0-2.967.174,6.668,6.668,0,0,1-1.77,0c-1.554-.4-3.677-.034-5.442-.4-1.4-.295-3.642-.235-5.091-.572s-3.553-.477-4.227-.956a24.54,24.54,0,0,1-3.536-.2,44.307,44.307,0,0,0-8.1-.479,14.244,14.244,0,0,0-1.5.062c-2.331.462-5.318.547-8.095,1.027h-9.354c-1.324.354-1.66.863-3.426,1.089h-1.4c-.5.432-2.265.5-3.023.822a20.6,20.6,0,0,1-2.084.045,15.953,15.953,0,0,0-2.582.1,26.83,26.83,0,0,1-4.277.332l-3.111.842a5.874,5.874,0,0,1-1.463-.1,4.772,4.772,0,0,0-1.384-.1c-.919.107-2.066.146-2.772.255-1.517.167-2.946.385-4.261.651a43.876,43.876,0,0,1-6.647.612c-.271,0-.543,0-.815-.008a11.314,11.314,0,0,0-2.9.207,4.753,4.753,0,0,1-1.5,0c-1.521-.27-3.359-.27-4.881-.48a14,14,0,0,0-2.773,0c-3.376.137-6.7.255-10.059.48-3,.236-6.118.328-9.229.277-1.858-.123-3.748-.207-5.655-.252-5.107.052-10.131.351-15.272.266a33.481,33.481,0,0,0-4.154.388,56.241,56.241,0,0,1-7.318.45,12.117,12.117,0,0,1-1.519-.052c-2.812-.439-4.723.111-6.859.414-3.023.147-6.276.06-9.193.251s-6.167-.066-9,.383v.212a5.272,5.272,0,0,1-.654.084c-.374-.014-.77,0-1.162.007a7.493,7.493,0,0,1-2.532-.205,6.518,6.518,0,0,0-.776,0c-3.925.313-8.4.08-12.055.866a25.866,25.866,0,0,0-6.207.551,27.9,27.9,0,0,1-5.552.558,28.458,28.458,0,0,0-6.309.8,67.473,67.473,0,0,1-10.8,1.324c-.848.057-1.675.13-2.477.223a69.3,69.3,0,0,1-7.456.229c-.939,0-1.9-.007-2.865,0l-.886.324a35.283,35.283,0,0,1-5.521-.01,37.393,37.393,0,0,0-3.882-.093c-1.416.369-3.694.339-4.631.845h-5.711l-4.684,1.321a19.659,19.659,0,0,0-6.082.514,4.5,4.5,0,0,1-1.332.122,8.26,8.26,0,0,0-.946.036c-.8.325-2.511.477-2.724.957a18.236,18.236,0,0,1-6.611-.066,29.06,29.06,0,0,0-7.177-.455c-1.05.093-2.134.147-3.236.17-1.519-.306-2.454-.73-4.224-.956a13.732,13.732,0,0,0-2.914-.11,8.115,8.115,0,0,1-1.759.126,7.5,7.5,0,0,0-1.513.1,23.814,23.814,0,0,1-2.934.2c-.892.093-1.742.207-2.548.348-2.384-.056-4.188-.55-6.7-.609l-2.883-.778a94.149,94.149,0,0,0-10.376-.27,17.159,17.159,0,0,1-5.391-1.86c-4.348-.343-9-.251-12.534-1.174h-3.89c-1.871-.155-2.914-.853-5.407-.631a39.149,39.149,0,0,0-6.489-1.321h-2.616c-1.519-.51-2.067-1.138-3.994-1.551a14.319,14.319,0,0,0-6.38-.417,14.563,14.563,0,0,1-3.535,0,25.293,25.293,0,0,0-4.26-.185c-.968.011-1.914.025-2.812-.037a21.933,21.933,0,0,1-4.349.479,2.879,2.879,0,0,1-2.422-1.388c-3.694-.321-7.279-.69-9.491-1.646h-3.429l-3.677-.993v-1.757a15.428,15.428,0,0,0-3.271.06,14.468,14.468,0,0,1-3.271.052,8.37,8.37,0,0,1-3.536-1.3c-2.384-.474-5.673-.478-7.953-1.038a8.234,8.234,0,0,1-2.691.221,19.616,19.616,0,0,0-2.01.038,14.693,14.693,0,0,0-2.459.383,8.635,8.635,0,0,1-1.444-.113,5.892,5.892,0,0,0-1.275-.107,10.956,10.956,0,0,1-2.582.21l-8.307-1.49q-1.33.209-2.512.476c-.76.188.212.591-1.095.738.317.369-.449.741-1.766.859a5.662,5.662,0,0,0-2.565.931c-.671.162-2.245.148-3.11.425-3.378.066-6.542.328-9.831.479-1.358-.151-2.7-.325-4.117-.45a10.12,10.12,0,0,0-1.961,0,31.132,31.132,0,0,1-7.954-.13c-2.511-1.169-7.548-1.94-11.349-3.111-.815-.007-1.681-.037-2.582-.037a4.039,4.039,0,0,1-2.1-1.029c-2.3-.1-4.26-.562-6.944-.771a32.842,32.842,0,0,1-3.359-1.152c-2.069-.9-4.665-1.712-7.07-2.562a6.113,6.113,0,0,0-1.77-.1l-6.931-1.883c-.24-.5-1.154-.952-2.56-1.28a17.552,17.552,0,0,1-4.524-1.916,12.174,12.174,0,0,0-3.529-.026,14.816,14.816,0,0,1-2.307.1,18.657,18.657,0,0,0-2.85.11,21.005,21.005,0,0,1-2.822.118c-1.83-.041-3.67-.041-5.5,0a9.559,9.559,0,0,1-4.385-1.082,34.972,34.972,0,0,1-5.478-.339,27.448,27.448,0,0,0-7.972-.1h-.992a42.065,42.065,0,0,0-4.878-1.125,7.677,7.677,0,0,0-1.766-.17,7.042,7.042,0,0,1-2.671-.352,4.053,4.053,0,0,0-1.187-.092c-.269,0-.554.008-.848-.011-1.66-.687-5.161-.9-6.661-1.687s-5.217-.934-6.453-1.741h-4.847c-2.066-.392-4.665-.506-5.8-1.115h-1.766c-2.353-.952-9.618-1.536-13.4-1.738a62.251,62.251,0,0,1-7.529-.725,7.754,7.754,0,0,0-2.864-.8q-4.45-.659-8.625-1.436a6.328,6.328,0,0,1-1.007-.288c-.464-.019-.93-.011-1.386-.008a10.288,10.288,0,0,1-2.857-.214,3.02,3.02,0,0,0-.763,0,22.03,22.03,0,0,1-3.524.182,22.72,22.72,0,0,0-2.854.1,5.869,5.869,0,0,1-1.77-.084,22.511,22.511,0,0,1-6.821.221c-1.062.178-.851.775-2.829.657-2.387.5-5.552.628-8.024,1.107v1.17a11.157,11.157,0,0,1-3.8.96,31.509,31.509,0,0,0-6.683,1.734,5.968,5.968,0,0,1-1.911.446c-1.61.175-3.154.389-4.613.643-1.907.311-4.189.178-6.167.407a13.33,13.33,0,0,1-1.77.243,13.106,13.106,0,0,0-4.139-.07,13.811,13.811,0,0,1-3.038.07,24.983,24.983,0,0,0-4.418.823c-1.36.3-1.679.85-3.13,1.045a5.421,5.421,0,0,0-3.077.919,33.4,33.4,0,0,1-4.754-.413c-.5-.026-1.018-.022-1.529-.016a11.4,11.4,0,0,1-2.942-.21,45.263,45.263,0,0,1-6.523.429,7.2,7.2,0,0,0-1.582.114,5.894,5.894,0,0,1-2.165.043c-.459.362-.37.735-1.625.957a27.728,27.728,0,0,1-4.189.387c-2.281.048-4.171.13-5.142.816-.728.5-3.024.447-4.458.717a3.592,3.592,0,0,1-1.289-.212l-1.042.26a11.151,11.151,0,0,0-4.383-.066,28.228,28.228,0,0,1-4.44.243,24.574,24.574,0,0,0-5.9.823q-1.972.393-4.137.705a15.473,15.473,0,0,0-3.13.572,14.455,14.455,0,0,1-3.394.656,22.81,22.81,0,0,1-4.249-.048c-.964-.07-1.936-.14-2.945-.125-2.4.041-4.8.041-7.2,0-1.335-.025-2.621.052-3.909.129a43.62,43.62,0,0,1-4.574.114,11.6,11.6,0,0,1-2.07-.232c-4.189.565-7.725-.114-11.15-.395-3.147.081-5.817.738-8.93.185a10.322,10.322,0,0,0-1.183,0,9.7,9.7,0,0,0-1.618.117,7.946,7.946,0,0,1-2.041.093,21.488,21.488,0,0,0-3.271-.218,10.513,10.513,0,0,1-1.766-.118,23.684,23.684,0,0,0-7.548-.062c-.159.461-2.635.617-1.929,1.1-2.755.738-6.065.61-9.261.61h-4.684a31.249,31.249,0,0,1-9.636,1.077l-3.023-.819a7.833,7.833,0,0,0-3.536.436,18.543,18.543,0,0,0-4.665-.24l-1.432.384a14.193,14.193,0,0,0-3.535-.191l-2.105.642c-.264.012-.515.012-.756.012a4.747,4.747,0,0,0-1.238.1,61.837,61.837,0,0,1-9.884,1.64,6.185,6.185,0,0,0-.953.206c-.66.022-1.331.02-2.01.011a24.562,24.562,0,0,0-4.037.2,6.219,6.219,0,0,1-2.9-.24c-2.6.487-6.079.333-8.749.916-5.479-.144-9.544.542-12.55,1.724h-2.547l-4.771,1.3a44.186,44.186,0,0,1-8.219.436c0,.373-1.116.554-1.77.738-.127.259.113.517.671.731-.424.026-.795.045-1.2.065-.76.207.035.48-.564.754-1.692.385-2.773.927-3.024,1.521l-3.429.93a10.525,10.525,0,0,0-1.968.114,11.128,11.128,0,0,1-2.116.118l-3.358.985c.146.531,2.829,1.03.146,1.625a11.623,11.623,0,0,1-2.688-.34,9.1,9.1,0,0,0-1.625-.07,7.8,7.8,0,0,1-1.239-.044c-.654.173-.389.369-.971.506-.958.221-2.159.395-1.946.87.053.107-.76.358-1.237.358-2.546.077-4.048.66-6.982.879a49.09,49.09,0,0,0-5.485.089c-1.656.081-3.376.166-5.121.121-.937-.021-1.219.232-2.066.232-.865,0-1.706.041-2.554.089a26.225,26.225,0,0,1-4.853-.051,19.57,19.57,0,0,0-5.889.243,5.159,5.159,0,0,1-1.377.146,18.417,18.417,0,0,0-5.094.565,50.811,50.811,0,0,1-7.9,1.13,9.993,9.993,0,0,0-3.112.535,20.366,20.366,0,0,1-2.971,1c-.46.029-.972.029-1.589.029-1.576.768-4.353,1.26-6.595,1.972a12.8,12.8,0,0,0-5.924.276c-1.258.362-2.613.7-4.048,1.009-2.812.535-6.166.683-9.208,1.048a28.376,28.376,0,0,0-3.836.627c-2.952.809-5.887,1.6-8.84,2.393-1.346.069-2.737.056-4.136.04a40.656,40.656,0,0,0-6.715.292c-1.222,1.1-2.829,2.182-7.266,2.928-2.847-.214-4.562.757-7.869.819a11.867,11.867,0,0,1-3.107-.646c-2.971.287-5.464.579-8.062.812a37.2,37.2,0,0,1-5.658.045c-2.245-.215-4.6-.333-6.982-.352a39.376,39.376,0,0,0-7.812-1.211c-2.652-.229-5.426-.742-8.644-.291a9.932,9.932,0,0,0-2.744-.232c-.388,0-.78,0-1.161-.008-.453-.015-.919,0-1.382.015a9.846,9.846,0,0,1-2.79-.162,14.874,14.874,0,0,1-4.4.114c-1.435-.185-2.392-.561-2.494-.989a22.606,22.606,0,0,1-6.365-.055,21.516,21.516,0,0,0-2.953.442c-.423-.022-.872-.015-1.323,0a8.241,8.241,0,0,1-2.687-.222l-2.138.609c-.269.021-.548.037-.83.04a42.745,42.745,0,0,0-7.071.354,11.33,11.33,0,0,1-1.894.078c-1.649.022-3.288.084-4.895.188-1.625.089-3.076.284-4.613.38a39.751,39.751,0,0,1-7.76-.106,20.621,20.621,0,0,0-2.758.4,31.591,31.591,0,0,1-7.2-.4,41.831,41.831,0,0,1-4.807.575,15.327,15.327,0,0,1-3.748-.062,31.05,31.05,0,0,0-4.841,0c-2.105.081-4.172.643-6.471.162a23.955,23.955,0,0,1-4.243.155c-.194-.06-.335-.1-.529-.145l-10.783.831c-1.685.295-3.461.554-5.3.771-1.642.11-3.342.145-5.022.1l-2.844.771c-2.415.144-4.732.388-6.877.72-1.663,0-3.8.019-5.623,0a17.227,17.227,0,0,0-1.987.13,10.019,10.019,0,0,1-3.137.014l.123-.048-3.288.957c-.686-.03-1.377-.019-2.073-.012a18.683,18.683,0,0,1-3.938-.217,5.139,5.139,0,0,0-1.049.114,5.377,5.377,0,0,1-1.045.118C-13468.694,9422.713-13468.814,9422.709-13468.942,9422.7Z" transform="translate(-12168.902 12240.431) rotate(180)"/><g class="d" transform="translate(1922.461 3872.147) rotate(180)"><path class="e" d="M.878,292.585c-.335.82.156,1.533.138,2.377s0,1.836,0,2.606a17.5,17.5,0,0,1,.688,3.188l.738,1.319a12.415,12.415,0,0,0,.092,2.328,23.5,23.5,0,0,0,.743,2.459l.793,5c-.046.09-.083.156-.137.246a5.483,5.483,0,0,0,.146,1.967c-.458,1.065.078,2.024.156,3a6.968,6.968,0,0,1,0,2.246,3.482,3.482,0,0,0-.06,1.737,10.036,10.036,0,0,0,.555,2.229,7.223,7.223,0,0,0-.385,3.336,5.225,5.225,0,0,1,.385,1.279,8.93,8.93,0,0,0-.105,3.6c.092.713.28,1.385.367,2.139a22.083,22.083,0,0,1,.179,2.27,2.623,2.623,0,0,0,.074.877,9.76,9.76,0,0,1,.339,3.278,2.677,2.677,0,0,0,.041.385l.582.992c-.376.541-.151,1.254-.216,1.86a5.378,5.378,0,0,1,.422,1.369,5.19,5.19,0,0,0-.05,2.95c-.41.048-.773.491-.947,1.155a3.4,3.4,0,0,0,.108,2.041c-.321.582-.1,1.287-.142,1.934a3.934,3.934,0,0,1-.229,1.811c.431,1.492-.06,2.778-.28,4.008a9.945,9.945,0,0,1-1.16,3.622,18.067,18.067,0,0,1-.335,3.237,8.414,8.414,0,0,0,.041,2.623c.225,1.2.5,2.36.779,3.737-.385.287-.459,1.033-.619,1.442.06,1.533.99,2.328.784,3.647a5.391,5.391,0,0,0,2.806,3.368c.527,1.639.138,3.4.316,5.032.766,1.369,1.518,2.729,2.293,4.1a7.352,7.352,0,0,1,.6,1.778,34.679,34.679,0,0,0,1,4.27,18.2,18.2,0,0,0,.963,1.877,3.015,3.015,0,0,1,.266,2.746A20.82,20.82,0,0,0,14.5,403.1a5.978,5.978,0,0,0,.028.738c.344.443.55,1.074.958,1.377.275.2.4.82.514,1.442a12.588,12.588,0,0,0,1.082,3.663,4.464,4.464,0,0,1,.541,2.36,1.225,1.225,0,0,0,.142.639A4.538,4.538,0,0,1,18,416.053c-.33,1.254.046,2.3.032,3.434,0,.393.248.525.225.959-.092,1.754.39,3.45.2,4.917.206,1.361.766,2.057.839,3.237,0,.221.243.6.344.574.459-.1.624.459.835.9.133.27.321.148.486.451-.119.377.046.82-.11,1.328a2.834,2.834,0,0,0-.326,1.246c.569,1.246,1.045,0,1.554-.066l.945,1.557c-.082.738.3,1.229.225,1.893l.889,1.59a2.281,2.281,0,0,1,1.458,1.4c.261.279.523-.09.72.262.023.188.041.361.064.557a.688.688,0,0,1,.7-.311c.174.3.348.82.706.82a10.15,10.15,0,0,0,.417,3.811l1.242,2.213v1.18a8.167,8.167,0,0,1,1.655,5.819c.555,1.238.408,2.852.876,4.057a1.5,1.5,0,0,0-.229,1.344,11.387,11.387,0,0,1,.2,2.8,1.906,1.906,0,0,1,.2.442,15.844,15.844,0,0,0,1.568,4.581c.147.27.064.574.105.926l.614.975a3.271,3.271,0,0,1-.183,1.639l.367.664a4.247,4.247,0,0,1-.229,2.164c.252.524.61.82.417,1.639l-.784,1.4a7.572,7.572,0,0,0,1.032,4.467V483.1c0,1.483-.124,3.016.582,4.295.459-.328.61.82,1.05.893a5.424,5.424,0,0,1-.06,3.5,2.544,2.544,0,0,0-.115.82,4.811,4.811,0,0,1-.206,1.516c-.147.631.239,1.09.2,1.7a2.431,2.431,0,0,1,0,.549c-.532,1.442.1,2.68.174,4.139-.266,1.59-.917,3.229-.376,5.171a2.843,2.843,0,0,0-.225.959c-.124,1.361.284,2.6.234,3.934-.039,1.111-.039,2.225,0,3.336.037,1.147-.422,2.188-.165,3.336a3.888,3.888,0,0,0,.628,1.574,4.079,4.079,0,0,1,.55,1.451A19.611,19.611,0,0,0,38,522.187a6.171,6.171,0,0,1,.789,2.737,6.356,6.356,0,0,0,.234,2.057,2.591,2.591,0,0,1-.064,2.033l.248.484c-.083.18-.229.295-.2.6.257.664.211,1.729.688,2.065.656.451.734,1.328.779,2.385a6.481,6.481,0,0,0,.371,1.942c.211.582.569.541.917.754-.266.7.22,1.082.151,1.737A10.422,10.422,0,0,0,42.317,542a5.425,5.425,0,0,0-.215,2.074,7.737,7.737,0,0,0-.394,2.2,1.866,1.866,0,0,1,.88,1.426c.188.672.715.82,1,1.451a6.6,6.6,0,0,1,.789,2.049c-.275.975.546,2.164,0,3.328,0,.344.17.524.234.82.22.918.092,1.975.39,2.86a17.346,17.346,0,0,1,.614,2.139,1.765,1.765,0,0,0,.426.885,9.426,9.426,0,0,1,1.664,3.1,3.374,3.374,0,0,0,.917,1.762h1.123c.459,1.147.582,2.614,1.059,3.721-.114.918.458.82.628,1.311a5.185,5.185,0,0,0,.215,3.164c-.023.23-.2.328-.082.82.225.893-.055,2.016.27,2.959a.665.665,0,0,1,0,.352,4.47,4.47,0,0,0-.211,1.967,1.974,1.974,0,0,0-.275.467q-.747,1.933-1.375,4a2.461,2.461,0,0,1-.766,1.328,14.68,14.68,0,0,0-.692,3.491c-.193,1.754-.752,5.122-1.664,6.212v.82c-.582.524-.692,1.729-1.068,2.688v2.246c-.775.574-.917,2.295-1.669,2.991s-.958,2.319-1.614,3.09c-.055.361.06.688-.1.943a1.782,1.782,0,0,0-.335,1.238,1.844,1.844,0,0,1-.165.82,11.817,11.817,0,0,1-1.077,2.262v.459a6.243,6.243,0,0,1-.092,3.7,8.041,8.041,0,0,0-.325,2.541,2.922,2.922,0,0,0-1.036,2.033c.038.848.038,1.7,0,2.549-.083.959.326,1.729.22,2.631s.458,1.639.073,2.7a7.3,7.3,0,0,0-1.834,2.1,2.012,2.012,0,0,1-1.229,1.188L34.8,636.1a1.408,1.408,0,0,1-.092.82c-.811,1.115-1.6,2.319-2.453,3.278a11.476,11.476,0,0,0-1.1,1.557c-.2,1.246-.637,2.155-.738,3.221a1.977,1.977,0,0,0-.986.975c0,.418-.028.82-.037,1.2-1.119,1.762-1.857,4.1-2.98,5.262a7.121,7.121,0,0,0-.124,3.688,2.334,2.334,0,0,1,0,.91c-.119.656-.284,1.279-.431,1.91.147,1.524.394,2.991.459,4.557.266.4.252,1.131.408,1.443.394.393.715.492.89,1.188.116.613.473.968.825.82.142.606.527.156.706.508a10.385,10.385,0,0,1,.458,1.164l-1.43,3.852c-.119.533.151.82.2,1.2s-.234.713-.211,1.262c.234.238.243.82.367,1.139.142.82-.151,1.639.248,2.18-.537,1.057-.541,2.582-.995,3.688-.459.459-1,.713-1.247,1.639-.284,1.049.367,1.934.105,3.032H24.954l-.949,1.7v1.59c-.917,1.025-1.27,2.688-1.577,4.4-.527.213-1.045.287-1.33,1.123a5.253,5.253,0,0,0,.458,2.016c-.151,1.024.147,2.18-.211,3.278a3.3,3.3,0,0,0,0,1.639,3.433,3.433,0,0,1-.4,2.959c-.4.893-1,1.147-1.485,1.852v1.213a10.647,10.647,0,0,1-1.265,3.008c.211,1.155-.459,1.639-.605,2.508v1.8c-.885,1.639-.8,3.795-1.123,5.811a6.145,6.145,0,0,0-1.784,2.5,21.248,21.248,0,0,1-.257,4.811l-.747,1.336c-.055,1.164-.532,2-.582,3.106a9.093,9.093,0,0,1,.33,1.18,5.506,5.506,0,0,0,.193,1.36c.193.467-.027,1,.211,1.516a3.139,3.139,0,0,1-.106,1.352,13.082,13.082,0,0,1-.917,1.959,10.958,10.958,0,0,0,.165,1.5,6.767,6.767,0,0,1-.435,3.328,4.2,4.2,0,0,0-.064,3.065c.459.1.605.893.917,1.262.087.361-.051.754.151,1.057a4.651,4.651,0,0,1,.491,2.819l1.265,2.172v2.647c.486.434.459,1.492.812,2.147.128,1.385-.426,2.68-.1,4.36l.312.41a25.034,25.034,0,0,0,.225,4.786,11.6,11.6,0,0,1,.211,1.148,16.283,16.283,0,0,0,1.27,5.008,6.98,6.98,0,0,1,.761,2.926,6.623,6.623,0,0,0,.536,2.573,6.159,6.159,0,0,1,.527,2.877c.752,1.7.527,3.77.83,5.59a1.554,1.554,0,0,1,0,.361c-.348.467-.151,1.139-.193,1.713a1.233,1.233,0,0,0,.083.3h.2c.431,1.311.183,2.819.367,4.172s.1,2.86.243,4.262c.289.992.816,1.877.394,3.18a2.659,2.659,0,0,0-.05.7,12.912,12.912,0,0,0,.431,3.393,7.784,7.784,0,0,1,.371,1.926c-.083,2.385.206,4.713.257,7.081-.045.884-.126,1.76-.243,2.623a22.1,22.1,0,0,0,.266,4.278c.215,1.557.33,3.1.458,4.663a3.061,3.061,0,0,1,0,1.287c-.2.7-.2,1.557-.459,2.262a1.092,1.092,0,0,0,0,.7A3.72,3.72,0,0,1,23,834.909a10.233,10.233,0,0,0,.587,3.081,12.29,12.29,0,0,1,.619,1.975c.11.328.142.861.248,1.287s-.284.82-.193,1.319l.807,1.442A6.234,6.234,0,0,0,25.385,846a20.518,20.518,0,0,1,.138,2.164c.307.352.376,1.172.789,1.4v.648c.215.82.706.975,1.045,1.59v4.335c.459,1.287.541,2.672.981,3.754a2.923,2.923,0,0,1,.06.7,10.211,10.211,0,0,1-.459,3.754,5.678,5.678,0,0,0-.188,1.639c-.458.312-.6,1.287-.917,1.959s-.261,1.713-.546,2.36c-.348.82,0,1.8-.38,2.524a1.487,1.487,0,0,0,0,.82,2.4,2.4,0,0,1,.165,1.377c-.135,1.794-.209,3.6-.22,5.409a3.163,3.163,0,0,1-.266,1.442,6.588,6.588,0,0,0-.545,3.508v1.975l-.624,1.106a4.41,4.41,0,0,1,0,1.074,2.853,2.853,0,0,0-.2.713H483.805V0H39.754c-.05.2.206,1.639.174,1.885.5,1.295.165.41.862,1.59a9.527,9.527,0,0,1,.138,3.041,10.828,10.828,0,0,1-1.756,4.327,3.832,3.832,0,0,0-.587,1.508,11.729,11.729,0,0,0,.151,4.188c.174,1.229.738,2.336.371,3.868-.22.262-.39.91-.761,1.172a2.364,2.364,0,0,0-.789,1.36c-.138.623-.532.549-.669,1.147s-.509.877-.573,1.385c-.092.762-.514.951-.679,1.7.325,1.451-.642,2.4-.6,4.008-.518.918-1.077,1.918-1.637,2.926a26.8,26.8,0,0,0-.252,2.983c-.335,1.295-.853,2.188-.458,3.483a2.72,2.72,0,0,1,.032,1.418,9.115,9.115,0,0,0-.183,2.377,3.246,3.246,0,0,1,.4,1.451c.041,1.246.458,2.328.426,3.59.275.2.059.967.5,1.156s.459,1.344.734,1.992c.179.41-.142.869-.179,1.311-.087,1.082-.665,1.975-.367,3.229.211.369.417.869.656.959.362.664.2,1.721.633,2.041a1.735,1.735,0,0,1,.509,1.475,29.084,29.084,0,0,0,.3,5.45l-.733,1.065c.165.647-.151.959-.179,1.426.458.934.041,1.639-.216,2.459.234,1.279-.312,2.565-.192,3.893a7.416,7.416,0,0,1,.3,3.959,19.325,19.325,0,0,0-.339,2.827c-.459.754-.793,1.639-1.463,2.016.284.7-.238,1.024-.161,1.639a6.988,6.988,0,0,1,.2,1.893,13.981,13.981,0,0,0,.179,1.7,2.856,2.856,0,0,0,.458,1.6c.041.885-.422,1.541-.114,2.393.541,0,.844.82,1.2,1.393a4.309,4.309,0,0,1,.591,1.983.987.987,0,0,0,.582.934l.779.77a18.45,18.45,0,0,0-.683,2.459,24.667,24.667,0,0,0-.1,2.664c-.22.492-.266,1.164-.559,1.41a8.971,8.971,0,0,0,.6,4.008c-.037.328-.275.443-.215.82l.358,1.131a15.759,15.759,0,0,0-.174,3.106c.77.7.757,2.508,1.522,3.278a3.859,3.859,0,0,0,.261,2.024c.1,0,.215-.074.321.254v1.877c.459-.057.39.729.614,1.024V125.1l.628.82a12.333,12.333,0,0,0,.39,2.8c.161.893-.156,1.942.206,2.828-.339.869-1.087,1.106-1.229,2.524.408.352.307,1.221.183,1.7a17.369,17.369,0,0,0-.188,3.164l.394.7a4.322,4.322,0,0,0-.161,1.91c.151.377.422.533.385.926s.206.738.225,1.213a1.536,1.536,0,0,0-.2.524c-.055,1.639.3,3.188.243,4.827,0,.082.11.156.138.262q.33,1.028.587,2.123A16.3,16.3,0,0,1,40,154.8a5.012,5.012,0,0,1-1.206,1.877c.193.361.174.877.4,1.188a1.457,1.457,0,0,1,.259.773,1.811,1.811,0,0,1-.139.866,3.894,3.894,0,0,0-.087,2.86,11.87,11.87,0,0,0-.656,3.737,6.042,6.042,0,0,1-.958,2.41c-.706,1.262-1.073,2.959-1.733,4.286a12.21,12.21,0,0,1-.527,2.385c-.115.828-.193,1.737-.339,2.541-.2,1.106-.417,2.393-1.22,2.77A13.331,13.331,0,0,0,34,183.7a1.844,1.844,0,0,1,0,.893,20.4,20.4,0,0,0-.408,2.672c-.211,1.336-.27,2.827-1.036,3.614v3.36a5.223,5.223,0,0,0-.683,2.524L31.093,198v1.869c-.316.044-.59.4-.711.926-.133.713-.559,1.024-.619,1.778s-.513.82-.665,1.516-.555.516-.834.82a4.761,4.761,0,0,1-.857,1.942,3.367,3.367,0,0,0-.693,1.319,1.311,1.311,0,0,1-.307.68c-.816.656-1.252,2.049-1.871,3.065a1.968,1.968,0,0,0-.294,1.238c.078.475-.284.549-.215.967a15.357,15.357,0,0,1,.642,2.508c-.092.59-.459.82-.541,1.467s-.628.672-.839,1.2-.628.18-.917.484a8.649,8.649,0,0,1-1.884,1.7,1.287,1.287,0,0,0-.564.959c-.027,1.541-.779,1.582-1.229,2.131a7.931,7.931,0,0,1-2.921,4.7,3.2,3.2,0,0,1-1.082,2.737,9.272,9.272,0,0,1-1.6,5.868,12.009,12.009,0,0,0-.257,2.852c.032.3-.147.385-.206.59a13.862,13.862,0,0,1-1.375,3.606c-.238.361-.458.779-.665,1.172,0,.3-.028.59-.041.82-.252.451-.459.82-.7,1.221a.113.113,0,0,1-.115.066,11.774,11.774,0,0,0-.711,2.828,3.32,3.32,0,0,0,.105,1.975A3.936,3.936,0,0,1,9.31,254.7c-.11.279-.316.41-.353.82a.7.7,0,0,1,.161.623,24.4,24.4,0,0,1-.546,2.95,2.662,2.662,0,0,0-.284,1.262,6.648,6.648,0,0,1-.619,2.877c-.264.659-.5,1.349-.715,2.065a8.132,8.132,0,0,1-1.05,2.557c-.151.09-.326-.115-.459.139a12.648,12.648,0,0,0-1.307,1.967,3.948,3.948,0,0,1-1.219,1.426v2.082A9.23,9.23,0,0,1,1.74,276.1c-.124.41-.032.7-.133,1.016-.385,1.188-.724,2.459-1.064,3.655a6.98,6.98,0,0,0-.293,2.532c.106.27.312.4.344.721a16.936,16.936,0,0,0-.578,3.163c-.087.484.215.721.211,1.139a8.8,8.8,0,0,0-.22,2.787l.917,1.524" transform="translate(531.399 1236.588) rotate(-180)"/><path class="f" d="M.878,425.6c-.335,1.192.156,2.229.138,3.457s0,2.67,0,3.791a35.692,35.692,0,0,1,.688,4.637l.738,1.919a26.206,26.206,0,0,0,.092,3.386c.209,1.243.458,2.44.743,3.577l.793,7.272c-.046.131-.083.227-.137.358a11.5,11.5,0,0,0,.146,2.861c-.458,1.55.078,2.945.156,4.363a14.693,14.693,0,0,1,0,3.266,7.3,7.3,0,0,0-.06,2.527,20.218,20.218,0,0,0,.555,3.243,15.016,15.016,0,0,0-.385,4.852,10.319,10.319,0,0,1,.385,1.86,18.779,18.779,0,0,0-.105,5.234c.092,1.037.28,2.015.367,3.112s.158,2.19.179,3.3a5.5,5.5,0,0,0,.074,1.276,20.4,20.4,0,0,1,.339,4.768,5.61,5.61,0,0,0,.041.56l.582,1.443a7.769,7.769,0,0,0-.216,2.706,10.584,10.584,0,0,1,.422,1.991,10.858,10.858,0,0,0-.05,4.292c-.41.07-.773.714-.947,1.681a7.089,7.089,0,0,0,.108,2.969,9.352,9.352,0,0,0-.142,2.813,8.155,8.155,0,0,1-.229,2.635c.431,2.17-.06,4.041-.28,5.83a19.393,19.393,0,0,1-1.16,5.269,37.867,37.867,0,0,1-.335,4.709,17.741,17.741,0,0,0,.041,3.815c.225,1.752.5,3.433.779,5.436-.385.417-.459,1.5-.619,2.1.06,2.229.99,3.386.784,5.305.715,2.992,1.756,4.077,2.806,4.9.527,2.384.138,4.947.316,7.32.766,1.991,1.518,3.97,2.293,5.961a14.273,14.273,0,0,1,.6,2.587c.349,2.05.49,4.316,1,6.211.3.968.617,1.88.963,2.73a6.143,6.143,0,0,1,.266,3.994,34.713,34.713,0,0,0,1.889,4.447c0,.417,0,.763.028,1.073a11.3,11.3,0,0,0,.958,2,5,5,0,0,1,.514,2.1,24.868,24.868,0,0,0,1.082,5.329,8.969,8.969,0,0,1,.541,3.433,2.469,2.469,0,0,0,.142.93A9.426,9.426,0,0,1,18,605.2c-.33,1.824.046,3.35.032,5,0,.572.248.763.225,1.395-.092,2.551.39,5.019.2,7.153.206,1.979.766,2.992.839,4.709,0,.322.243.87.344.835.459-.143.624.668.835,1.311.133.393.321.215.486.656-.119.548.046,1.192-.11,1.931a5.645,5.645,0,0,0-.326,1.812c.569,1.812,1.045,0,1.554-.1l.945,2.265c-.082,1.073.3,1.788.225,2.754l.889,2.313c.569.167,1.091.9,1.458,2.039.261.405.523-.131.72.382.023.274.041.525.064.811.2-.378.454-.54.7-.453.174.441.348,1.192.706,1.192a21.183,21.183,0,0,0,.417,5.543l1.242,3.219v1.717a15.893,15.893,0,0,1,1.655,8.464c.555,1.8.408,4.149.876,5.9A3.012,3.012,0,0,0,31.749,668a23.952,23.952,0,0,1,.2,4.077,3.505,3.505,0,0,1,.2.644,30.658,30.658,0,0,0,1.568,6.664,5.326,5.326,0,0,1,.105,1.347l.614,1.419a6.782,6.782,0,0,1-.183,2.384l.367.966a8.825,8.825,0,0,1-.229,3.147,3.869,3.869,0,0,1,.417,2.384l-.784,2.038a15.2,15.2,0,0,0,1.032,6.5v3.159c0,2.158-.124,4.387.582,6.247.459-.477.61,1.192,1.05,1.3a11.314,11.314,0,0,1-.06,5.09,5.281,5.281,0,0,0-.115,1.192,10,10,0,0,1-.206,2.205,18.2,18.2,0,0,0,.2,2.468,5.135,5.135,0,0,1,0,.8c-.532,2.1.1,3.9.174,6.02-.266,2.313-.917,4.7-.376,7.522a5.743,5.743,0,0,0-.225,1.395c-.124,1.979.284,3.779.234,5.722-.039,1.616-.039,3.236,0,4.852.037,1.669-.422,3.183-.165,4.852a7.285,7.285,0,0,0,.628,2.289,7.738,7.738,0,0,1,.55,2.11c.2.972.423,1.9.674,2.79a12.168,12.168,0,0,1,.789,3.982,13.265,13.265,0,0,0,.234,2.992,5.362,5.362,0,0,1-.064,2.956l.248.7a1.8,1.8,0,0,0-.2.87c.257.966.211,2.516.688,3,.656.656.734,1.931.779,3.469a13.285,13.285,0,0,0,.371,2.825c.211.847.569.787.917,1.1-.266,1.025.22,1.574.151,2.527a21.675,21.675,0,0,0,.408,4.4,11.324,11.324,0,0,0-.215,3.016,15.912,15.912,0,0,0-.394,3.207,3,3,0,0,1,.88,2.074c.188.978.715,1.192,1,2.11a12.509,12.509,0,0,1,.789,2.98c-.275,1.419.546,3.147,0,4.84a6.417,6.417,0,0,0,.234,1.192c.22,1.335.092,2.873.39,4.16.244.983.449,2.025.614,3.112a3.146,3.146,0,0,0,.426,1.288,16.41,16.41,0,0,1,1.664,4.506,5.872,5.872,0,0,0,.917,2.563h1.123c.459,1.669.582,3.8,1.059,5.412-.114,1.335.458,1.192.628,1.907a10.791,10.791,0,0,0,.215,4.6,2.714,2.714,0,0,0-.082,1.192c.225,1.3-.055,2.933.27,4.3a1.394,1.394,0,0,1,0,.513,9.306,9.306,0,0,0-.211,2.861,3.343,3.343,0,0,0-.275.679q-.747,2.812-1.375,5.818a4.136,4.136,0,0,1-.766,1.932,30.069,30.069,0,0,0-.692,5.078c-.193,2.551-.752,7.451-1.664,9.036v1.192c-.582.763-.692,2.515-1.068,3.91v3.267c-.775.835-.917,3.338-1.669,4.351S43.156,882.883,42.5,884a5.385,5.385,0,0,1-.1,1.371,3.48,3.48,0,0,0-.335,1.8,3.756,3.756,0,0,1-.165,1.192,21.392,21.392,0,0,1-1.077,3.29v.667a13.048,13.048,0,0,1-.092,5.377,16.737,16.737,0,0,0-.325,3.7,5.049,5.049,0,0,0-1.036,2.957c.038,1.234.038,2.474,0,3.707-.083,1.395.326,2.516.22,3.827s.458,2.384.073,3.934a10.408,10.408,0,0,0-1.834,3.052c-.314.95-.751,1.565-1.229,1.729l-1.8,4.673a2.919,2.919,0,0,1-.092,1.192c-.811,1.621-1.6,3.374-2.453,4.769a18.119,18.119,0,0,0-1.1,2.265c-.2,1.812-.637,3.135-.738,4.685a2.579,2.579,0,0,0-.986,1.419c0,.608-.028,1.192-.037,1.74-1.119,2.563-1.857,5.961-2.98,7.654a14.921,14.921,0,0,0-.124,5.365,4.913,4.913,0,0,1,0,1.323c-.119.954-.284,1.86-.431,2.778.147,2.217.394,4.351.459,6.628a18.323,18.323,0,0,1,.408,2.1,3.2,3.2,0,0,1,.89,1.729c.116.891.473,1.408.825,1.192.142.882.527.227.706.739.171.53.324,1.1.458,1.693l-1.43,5.6a5.254,5.254,0,0,0,.2,1.741c.05.548-.234,1.037-.211,1.836a7.223,7.223,0,0,1,.367,1.657c.142,1.192-.151,2.384.248,3.171-.537,1.538-.541,3.755-.995,5.365a4.775,4.775,0,0,0-1.247,2.384c-.284,1.526.367,2.813.105,4.411H24.954l-.949,2.48v2.313c-.917,1.49-1.27,3.91-1.577,6.4a2.022,2.022,0,0,0-1.33,1.633,10.631,10.631,0,0,0,.458,2.933c-.151,1.49.147,3.171-.211,4.769a6.935,6.935,0,0,0,0,2.384,6.959,6.959,0,0,1-.4,4.3c-.4,1.3-1,1.669-1.485,2.694v1.764a19.775,19.775,0,0,1-1.265,4.375c.211,1.681-.459,2.384-.605,3.648v2.623c-.885,2.384-.8,5.52-1.123,8.452a9.578,9.578,0,0,0-1.784,3.636,44.785,44.785,0,0,1-.257,7l-.747,1.943c-.055,1.693-.532,2.909-.582,4.518.133.541.243,1.116.33,1.717a11.45,11.45,0,0,0,.193,1.979c.193.679-.027,1.454.211,2.206a6.578,6.578,0,0,1-.106,1.967,23.806,23.806,0,0,1-.917,2.849c.021.742.077,1.474.165,2.182a14.007,14.007,0,0,1-.435,4.84,8.728,8.728,0,0,0-.064,4.458c.459.143.605,1.3.917,1.836a6.513,6.513,0,0,0,.151,1.538,9.478,9.478,0,0,1,.491,4.1l1.265,3.159v3.851c.486.632.459,2.17.812,3.123.128,2.015-.426,3.9-.1,6.342l.312.6a52.81,52.81,0,0,0,.225,6.962c.088.54.159,1.1.211,1.669a32.689,32.689,0,0,0,1.27,7.284,13.928,13.928,0,0,1,.761,4.256,13.473,13.473,0,0,0,.536,3.743,12.591,12.591,0,0,1,.527,4.184c.752,2.468.527,5.484.83,8.13a3.284,3.284,0,0,1,0,.525,6.6,6.6,0,0,0-.193,2.492,2.464,2.464,0,0,0,.083.441h.2c.431,1.908.183,4.1.367,6.068s.1,4.161.243,6.2c.289,1.443.816,2.73.394,4.626a5.59,5.59,0,0,0-.05,1.025,26.911,26.911,0,0,0,.431,4.935,15.966,15.966,0,0,1,.371,2.8c-.083,3.469.206,6.855.257,10.3-.045,1.285-.126,2.56-.243,3.815a46.565,46.565,0,0,0,.266,6.223c.215,2.265.33,4.506.458,6.783a6.439,6.439,0,0,1,0,1.872c-.2,1.025-.2,2.265-.459,3.29a2.278,2.278,0,0,0,0,1.013,7.734,7.734,0,0,1,.193,2.5,20.981,20.981,0,0,0,.587,4.482,24.155,24.155,0,0,1,.619,2.873c.11.477.142,1.252.248,1.872s-.284,1.192-.193,1.919l.807,2.1a12.882,12.882,0,0,0,.316,2.885c.216,1.073,0,2.11.138,3.147.307.513.376,1.7.789,2.039v.942c.215,1.192.706,1.419,1.045,2.313v6.306c.459,1.872.541,3.887.981,5.46a6.137,6.137,0,0,1,.06,1.013,21.251,21.251,0,0,1-.459,5.46,11.858,11.858,0,0,0-.188,2.384c-.458.453-.6,1.872-.917,2.849s-.261,2.491-.546,3.433c-.348,1.192,0,2.623-.38,3.672a3.115,3.115,0,0,0,0,1.192,4.972,4.972,0,0,1,.165,2c-.135,2.609-.209,5.236-.22,7.868a6.466,6.466,0,0,1-.266,2.1,13.536,13.536,0,0,0-.545,5.1v2.873l-.624,1.609a9.313,9.313,0,0,1,0,1.562,5.689,5.689,0,0,0-.2,1.037H483.805V0H39.754c-.05.3.206,2.384.174,2.742a8.549,8.549,0,0,0,.862,2.313,20.054,20.054,0,0,1,.138,4.423,20.224,20.224,0,0,1-1.756,6.295,7.22,7.22,0,0,0-.587,2.194,24.7,24.7,0,0,0,.151,6.092c.174,1.788.738,3.4.371,5.627-.22.381-.39,1.323-.761,1.7a3.954,3.954,0,0,0-.789,1.979c-.138.906-.532.8-.669,1.669s-.509,1.276-.573,2.015c-.092,1.109-.514,1.383-.679,2.468.325,2.11-.642,3.493-.6,5.83-.518,1.335-1.077,2.79-1.637,4.256,0,1.6-.385,3.112-.252,4.339-.335,1.884-.853,3.183-.458,5.067a5.7,5.7,0,0,1,.032,2.062,19.155,19.155,0,0,0-.183,3.457,6.423,6.423,0,0,1,.4,2.11c.041,1.812.458,3.386.426,5.222.275.3.059,1.407.5,1.681s.459,1.955.734,2.9c.179.6-.142,1.264-.179,1.907-.087,1.574-.665,2.873-.367,4.7.211.536.417,1.264.656,1.395.362.966.2,2.5.633,2.968a3.245,3.245,0,0,1,.509,2.146,61.324,61.324,0,0,0,.3,7.928l-.733,1.55a6.732,6.732,0,0,1-.179,2.074c.458,1.359.041,2.384-.216,3.576.234,1.86-.312,3.731-.192,5.663a15.465,15.465,0,0,1,.3,5.758,40.4,40.4,0,0,0-.339,4.113c-.459,1.1-.793,2.384-1.463,2.933.284,1.013-.238,1.49-.161,2.384a14.617,14.617,0,0,1,.2,2.754c-.078.906.2,1.7.179,2.468A5.6,5.6,0,0,0,34,133.08c.041,1.288-.422,2.241-.114,3.481.541,0,.844,1.192,1.2,2.027a8.453,8.453,0,0,1,.591,2.885c.046.918.358,1.192.582,1.359l.779,1.121c-.276,1.125-.505,2.324-.683,3.576-.08,1.28-.112,2.578-.1,3.874a9.046,9.046,0,0,1-.559,2.051,18.515,18.515,0,0,0,.6,5.83c-.037.477-.275.644-.215,1.192l.358,1.645a33.217,33.217,0,0,0-.174,4.518c.77,1.025.757,3.648,1.522,4.769a7.977,7.977,0,0,0,.261,2.945c.1,0,.215-.107.321.37v2.73c.459-.084.39,1.061.614,1.49v3.028l.628,1.192a25.657,25.657,0,0,0,.39,4.077c.161,1.3-.156,2.825.206,4.113-.339,1.264-1.087,1.609-1.229,3.672a3.851,3.851,0,0,1,.183,2.468,36.61,36.61,0,0,0-.188,4.6l.394,1.025a9.033,9.033,0,0,0-.161,2.778c.151.548.422.775.385,1.347s.206,1.073.225,1.764a2.91,2.91,0,0,0-.2.763c-.055,2.384.3,4.637.243,7.022,0,.119.11.227.138.381q.33,1.495.587,3.088A33.6,33.6,0,0,1,40,225.173a8.172,8.172,0,0,1-1.206,2.73c.193.525.174,1.276.4,1.729a2.8,2.8,0,0,1,.259,1.125,3.723,3.723,0,0,1-.139,1.259,8.081,8.081,0,0,0-.087,4.161,24.5,24.5,0,0,0-.656,5.436,11.333,11.333,0,0,1-.958,3.5c-.706,1.836-1.073,4.3-1.733,6.235a24.848,24.848,0,0,1-.527,3.469c-.115,1.2-.193,2.527-.339,3.7-.2,1.609-.417,3.481-1.22,4.029A28.055,28.055,0,0,0,34,267.209a3.871,3.871,0,0,1,0,1.3c-.192,1.251-.329,2.555-.408,3.886-.211,1.943-.27,4.113-1.036,5.257v4.888a10.353,10.353,0,0,0-.683,3.672l-.78,1.8v2.718c-.316.064-.59.585-.711,1.347-.133,1.037-.559,1.49-.619,2.587s-.513,1.192-.665,2.205-.555.751-.834,1.192a8.72,8.72,0,0,1-.857,2.825,5.888,5.888,0,0,0-.693,1.919,2.375,2.375,0,0,1-.307.99c-.816.954-1.252,2.98-1.871,4.459a3.923,3.923,0,0,0-.294,1.8c.078.691-.284.8-.215,1.407a30.887,30.887,0,0,1,.642,3.648c-.092.858-.459,1.192-.541,2.134s-.628.978-.839,1.753-.628.262-.917.7a10.914,10.914,0,0,1-1.884,2.48,2.135,2.135,0,0,0-.564,1.395c-.027,2.241-.779,2.3-1.229,3.1a12.922,12.922,0,0,1-2.921,6.843,5.831,5.831,0,0,1-1.082,3.982,18.215,18.215,0,0,1-1.6,8.536,25.2,25.2,0,0,0-.257,4.149c.032.441-.147.56-.206.858a26.342,26.342,0,0,1-1.375,5.245c-.238.525-.458,1.133-.665,1.7,0,.429-.028.858-.041,1.192-.252.656-.459,1.192-.7,1.776-.031.073-.073.108-.115.1a23.714,23.714,0,0,0-.711,4.113,6.924,6.924,0,0,0,.105,2.873A8.205,8.205,0,0,1,9.31,370.5a4.128,4.128,0,0,0-.353,1.192,1.373,1.373,0,0,1,.161.906c-.261,1.359-.165,2.98-.546,4.292a5.369,5.369,0,0,0-.284,1.836,13.476,13.476,0,0,1-.619,4.184c-.264.958-.5,1.962-.715,3a15.2,15.2,0,0,1-1.05,3.72c-.151.131-.326-.167-.459.2a20.513,20.513,0,0,0-1.307,2.861,5.667,5.667,0,0,1-1.219,2.074V397.8a16.891,16.891,0,0,1-1.178,3.827c-.124.6-.032,1.013-.133,1.478-.385,1.729-.724,3.576-1.064,5.317A14.546,14.546,0,0,0,.25,412.1a4.418,4.418,0,0,1,.344,1.049,34.881,34.881,0,0,0-.578,4.6c-.087.7.215,1.049.211,1.657a18.463,18.463,0,0,0-.22,4.053l.917,2.217" transform="translate(481.399 1550.667) rotate(-180)"/><g transform="translate(675.701 969.388) rotate(180)"><g class="g" transform="translate(101.722)"><g class="h"><g class="h"><path class="i" d="M59.083,107.379a17.731,17.731,0,1,1-35.4,2L17.775,2.993,0,4,5.908,110.371a35.528,35.528,0,1,0,70.942-4L70.951,0,53.158,1Z" transform="translate(185.669 30.261)"/><path class="i" d="M.042,36.291a33.514,33.514,0,0,0,16.8,27.233A33.57,33.57,0,0,0,3.163,92.471l2.645,48.047,10.669-.595L13.832,91.867a22.726,22.726,0,0,1,21.3-23.974l13.076-.738-.6-10.744-13.076.737h0a22.754,22.754,0,0,1-2.521-45.436l17.254-.977L48.668,0,31.413.968A33.462,33.462,0,0,0,.051,36.3" transform="translate(0.011 41.325)"/><path class="i" d="M32.835,65.693A47.38,47.38,0,0,0,50.883,52a40.454,40.454,0,0,0,8.385-29.116A25.822,25.822,0,0,0,51.016,5.393,19.984,19.984,0,0,0,36.467.021c-12.449.7-20.878,11.952-20.059,26.754l1.6,28.929A91.924,91.924,0,0,1,0,58.43L.838,72.743a111.6,111.6,0,0,0,17.987-2.45l3.835,69.046L97.869,135.1l-.793-14.322-61,3.436Zm-2.2-39.717c-.37-6.616,2.354-11.4,6.63-11.641A6,6,0,0,1,41.5,16.065a11.582,11.582,0,0,1,3.526,7.9l.079.772a25.55,25.55,0,0,1-5.571,18.549,30.027,30.027,0,0,1-7.618,6.634Z" transform="translate(72.741 36.057)"/><path class="i" d="M116.918,85.2a45.147,45.147,0,1,1-2.152-28.938l26.222-11.206A73.366,73.366,0,0,0,.208,79.479,73.334,73.334,0,0,0,144.516,92.331Z" transform="translate(490.302 7.075)"/><path class="i" d="M37.975.089A40.414,40.414,0,0,0,.062,42.763L6,149.832l24.882-1.394L24.952,41.36a15.273,15.273,0,1,1,30.5-1.715l5.943,107.069,24.881-1.394L80.332,38.244A40.338,40.338,0,0,0,37.958.062" transform="translate(389.333 10.833)"/><path class="i" d="M.087,45.508A40.54,40.54,0,0,0,14.777,74.544,40.724,40.724,0,0,0,6.958,119.63a40.189,40.189,0,0,0,38.908,23.649l48.255-2.717-1.19-21.479-48.265,2.726a19.058,19.058,0,0,1-2.107-38.057L83.011,81.47l-1.2-21.479L41.369,62.272a19.058,19.058,0,0,1-2.116-38.057l48.23-2.736L86.292,0,38.036,2.718A40.51,40.51,0,0,0,.062,45.49" transform="translate(281.837 21.506)"/><path class="i" d="M50.5,40.171,34.237,3.517,0,5.444,35.947,86.451l-18.78,59.661.679.213,33.46-1.882L96.75.009,96.706,0,62.54,1.918Z" transform="translate(634.535 0.009)"/></g></g></g><g class="g" transform="translate(397.146 132.188)"><g class="j"><g class="j"><path class="i" d="M124.542,95.755a48.624,48.624,0,1,1,.415-31.22l29.149-9.5A79.079,79.079,0,1,0,65.112,157.839a78.907,78.907,0,0,0,88.324-51.8Z" transform="translate(527.54 14.253)"/><path class="i" d="M3.659,35.357A36.618,36.618,0,0,0,19.451,66.675,36.582,36.582,0,0,0,1.684,96.866L0,149.494l11.462.374,1.684-52.62A24.922,24.922,0,0,1,38.76,73.069l14.319.462.37-11.543L39.13,61.525h0a25,25,0,0,1,1.6-49.964l18.9.612L60,.63,41.1.018A36.47,36.47,0,0,0,3.641,35.385" transform="translate(0 0.027)"/><path class="i" d="M20.112.5,4.8,0,0,149.7l57.487,1.865.5-15.423-42.181-1.368Z" transform="translate(73.481 1.465)"/><path class="i" d="M56.089,136.652A34.719,34.719,0,0,1,23.333,94.67a53.232,53.232,0,0,0,33.638,13.4c16.919.551,34.8-10.9,35.453-30.989.661-20.858-16.708-32.686-33.4-33.228a56.882,56.882,0,0,0-30.859,7.992A30.858,30.858,0,0,1,47.8,25.212a30.507,30.507,0,0,1,32.271,6.646l15.985-16.63A53.323,53.323,0,0,0,29.938,8.456,54.181,54.181,0,0,0,8.089,71.664a58.2,58.2,0,0,0,20.079,79.452,57.34,57.34,0,0,0,78.9-20.224L87.187,119.267a34.572,34.572,0,0,1-31.072,17.368M69.508,76.317c-.194,6.215-6.983,8.755-11.735,8.6A30.476,30.476,0,0,1,35.809,74.471a34.223,34.223,0,0,1,22.537-7.5c.467,0,11.462.479,11.163,9.35" transform="translate(308.275 6.067)"/><path class="i" d="M137.572,104.716l.124-3.969,3.112-97-19.142-.622-3.112,96.99a38.487,38.487,0,1,1-76.931-2.5l3.106-97L25.587,0,22.475,97l-.124,3.969A38.608,38.608,0,0,1,0,134.932l8.032,17.51a57.691,57.691,0,0,0,24.3-21.212,57.219,57.219,0,0,0,93.337,3.037,57.758,57.758,0,0,0,22.924,22.74l9.144-16.95a38.632,38.632,0,0,1-20.129-35.341" transform="translate(143.065 4.838)"/><path class="i" d="M48.317.021A43.422,43.422,0,0,0,3.694,42.146L0,157.481l26.795.888L30.5,43.033a16.431,16.431,0,1,1,32.844,1.075L59.647,159.434l26.8.888L90.146,45A43.478,43.478,0,0,0,48.318.057" transform="translate(426.233 5.883)"/><path class="i" d="M50.865,42.036,36.882,1.2,0,0,30.913,90.242,5.176,152.407l.706.293,36.035,1.172L104.218,3.4l-.053-.017-36.793-1.2Z" transform="translate(681.856 19.313)"/></g></g></g><g class="g" transform="translate(213.751 201.022)"><g class="k"><g class="k"><path class="i" d="M48.5.042C25.887-1,6.622,17.162,5.563,40.533L0,163.5l20.553.941L26.116,41.491c.538-11.951,10.167-21.249,21.452-20.733S67.592,31.413,67.045,43.374L61.481,166.319l20.552.95L87.6,44.315C88.656,20.953,71.119,1.1,48.5.06" transform="translate(425.492 15.879)"/><path class="i" d="M146.333,107.383a67.1,67.1,0,1,1-72-90.191,67,67,0,0,1,73.142,46.93L163.2,59.23A83.571,83.571,0,1,0,67.724,166.6a83.375,83.375,0,0,0,94.058-53.493Z" transform="translate(529.458 23.047)"/><path class="i" d="M65.617,125.131C79.3,98.582,83.506,67.779,83.8,56.085,85.031,6.893,62.257.491,52.276.029h-.159C42.189-.423,18.93,3.865,15.712,52.968,14.945,64.636,16.355,95.7,27.58,123.4a46.935,46.935,0,0,1-3.9,4.138C17.043,133.754,10,136.489,1.508,136.1L0,169.21c16.832.772,32.474-4.991,45.311-16.667,11.718,12.813,26.777,19.979,43.6,20.751l1.5-33.112c-8.491-.4-15.263-3.747-21.311-10.558a48.077,48.077,0,0,1-3.526-4.484M49.005,70.39a107.786,107.786,0,0,1-.467-15.237A91.334,91.334,0,0,1,50.3,41.833a90.343,90.343,0,0,1,.548,13.391,106.7,106.7,0,0,1-1.843,15.095" transform="translate(116.121 0.007)"/><path class="i" d="M5.026,48.515a50.8,50.8,0,0,0,9.945,32.6A50.672,50.672,0,0,0,2.125,112.678L0,159.472l37.032,1.705,2.116-46.8a13.431,13.431,0,0,1,13.966-12.84l43.591,2.007L98.39,66.247l-43.591-2a13.472,13.472,0,0,1,1.216-26.9l52.021,2.388L109.72,2.439,57.7.051A50.609,50.609,0,0,0,5.053,48.444" transform="translate(0 0.109)"/><path class="i" d="M61.52,124.605a16.371,16.371,0,0,1-32.7-1.5L34.328,1.323,5.558,0,.048,121.782a45.174,45.174,0,1,0,90.25,4.146L95.81,4.147,67.04,2.823Z" transform="translate(230.605 8.826)"/><path class="i" d="M3.085,40.631a42.5,42.5,0,0,0,13.04,32.6A49.615,49.615,0,0,0,2.813,126.312a49.076,49.076,0,0,0,43.511,32.824l7.416.418,1.375-24.863-7.406-.417a24.55,24.55,0,0,1,2.468-49.036l7.054.333L58.36,60.707l-7.054-.329-6.921-.311a17.58,17.58,0,0,1,1.6-35.122l18.409.848L65.51.931,47.1.043A42.3,42.3,0,0,0,3.085,40.5" transform="translate(343.159 17.476)"/><path class="i" d="M32.385,96.013,3.359,162.032l13.234.6L86.372,3.96l-13.234-.6L39.765,79.24,13.243.6,0,0Z" transform="translate(700.962 30.172)"/></g></g></g><g class="g" transform="translate(0 224.082)"><g class="l"><g class="l"><path class="i" d="M75.981,128.492A52.826,52.826,0,0,1,25.556,94.368c27.872,8.071,56.236,4.626,78.737-10.158,22.042-14.491,25.041-32.046,24.864-41.218-.282-14.207-8.006-27.269-20.685-34.914C99.091,2.422,87.206-.287,73.2.024A75.465,75.465,0,0,0,54.537,147.962,74.7,74.7,0,0,0,143.115,106.4l-20.174-9.173a53.015,53.015,0,0,1-46.924,31.264M73.688,22.3c9.813-.213,17.705,1.439,23.454,4.9,6.093,3.667,9.8,9.768,9.919,16.214.159,7.885-5.114,15.743-14.831,22.127C72.772,78.332,47.105,79.752,22.418,69.719A52.962,52.962,0,0,1,73.688,22.3" transform="translate(247.559 7.275)"/><path class="i" d="M127.425,115.218a21.374,21.374,0,1,1-42.736.949L83.031,40.9A41.522,41.522,0,1,0,.01,42.734L2.382,151.117l18.437-.408L18.438,42.326A23.085,23.085,0,1,1,64.595,41.3l1.658,75.271a39.817,39.817,0,1,0,79.612-1.776L143.419,3l-18.437.408Z" transform="translate(402.144 2.24)"/><path class="i" d="M29.494,0,0,.657,3.166,145.25l62.742-1.394-.652-29.7-33.24.737Z" transform="translate(74.284 15.059)"/><path class="i" d="M74.878,133.32A59.266,59.266,0,0,1,58.915,16.757a58.717,58.717,0,0,1,69.562,36.071L142.25,47.5A73.523,73.523,0,0,0,.063,77.14,73.505,73.505,0,0,0,144.18,94.97L130.029,90.8a58.648,58.648,0,0,1-55.151,42.532" transform="translate(558.908 1.692)"/><path class="i" d="M.021,45.276a44.061,44.061,0,0,0,10,27.02A44.114,44.114,0,0,0,1.2,99.743l1.023,46.591,33.188-.737L34.391,99.005a10.377,10.377,0,0,1,9.963-10.752l12.556-.275-.731-33.423-12.556.284a10.53,10.53,0,0,1-.467-21.055l16.567-.371L58.99,0,42.423.364A43.748,43.748,0,0,0,.013,45.277" transform="translate(-0.013 15.965)"/><path class="i" d="M57.548,109.776a14.678,14.678,0,0,1-29.343.648L25.815,1.208,0,1.776,2.4,110.993a40.49,40.49,0,1,0,80.958-1.776L80.958,0,55.15.568Z" transform="translate(151.318 13.355)"/><path class="i" d="M65.6.267,40.32,70.157,11.876,1.457,0,1.723,34.739,85.616l-21.99,60.8,11.868-.258L77.475,0Z" transform="translate(704.119 0)"/></g></g></g></g></g></g></svg>